<?xml version="1.0" encoding="utf-8"?>
<!-- Generator: Adobe Illustrator 19.1.0, SVG Export Plug-In . SVG Version: 6.00 Build 0)  -->
<svg version="1.1" xmlns="http://www.w3.org/2000/svg" xmlns:xlink="http://www.w3.org/1999/xlink" x="0px" y="0px"
	 viewBox="0 0 1080 720" style="enable-background:new 0 0 1080 720;" xml:space="preserve">
<style type="text/css">
	.st0{opacity:0.5;}
	.st1{fill-rule:evenodd;clip-rule:evenodd;fill:#F15C25;}
	.st2{fill:#F15C25;}
	.st3{fill:#4E4E4E;}
	.st4{fill:#676767;}
	.st5{fill:#CDCCCC;}
	.st6{fill:#B4B4B4;}
	.st7{fill:#C7C8C9;}
	.st8{fill:#818181;}
	.st9{fill:#F9A980;}
	.st10{fill:#F05025;}
	.st11{fill:#010101;}
	.st12{font-family:sans-serif;}
	.st13{font-size:25px;}
	.st14{fill:none;stroke:#010101;stroke-miterlimit:10;}
	.st15{fill:none;}
	.st16{font-family:sans-serif;}
	.st17{font-size:20px;}
	.st18{font-family:sans-serif;}
	.st19{fill:#616161;}
	.st20{font-size:16px;}
</style>
<g id="Static">
	<g id="XMLID_40_" class="st0">
		<g id="XMLID_49_">
			<path id="XMLID_50_" class="st1" d="M1031.5,19.5c-16.6,0-30,13.4-30,30s13.4,30,30,30c16.6,0,30-13.4,30-30
				S1048.1,19.5,1031.5,19.5z M1031.5,77.9c-15.7,0-28.4-12.7-28.4-28.4s12.7-28.4,28.4-28.4c15.7,0,28.4,12.7,28.4,28.4
				S1047.2,77.9,1031.5,77.9z"/>
		</g>
		<g id="XMLID_41_">
			<path id="XMLID_48_" class="st2" d="M1030.3,24.9c-0.2,0-0.4,0.2-0.4,0.4v4.6h-2.8v-4.6c0-0.2-0.2-0.4-0.4-0.4h-0.9
				c-0.2,0-0.4,0.2-0.4,0.4v4.6h-2.8v-4.6c0-0.2-0.2-0.4-0.4-0.4h-0.9c-0.2,0-0.4,0.2-0.4,0.4v6.2h10.3v-6.2c0-0.2-0.2-0.4-0.4-0.4
				H1030.3z"/>
			<path id="XMLID_45_" class="st2" d="M1015.8,38c0.2,0,0.4-0.2,0.4-0.4v-0.9c0-0.2-0.2-0.4-0.4-0.4h-8.2c-0.2,0-0.4,0.2-0.4,0.4
				v0.9c0,0.2,0.2,0.4,0.4,0.4h1.5v10h-1.5c-0.2,0-0.4,0.2-0.4,0.4v0.9c0,0.2,0.2,0.4,0.4,0.4h8.2c0.2,0,0.4-0.2,0.4-0.4v-0.9
				c0-0.2-0.2-0.4-0.4-0.4h-1.5V38H1015.8z M1012.7,47.9h-1.9V38h1.9V47.9z"/>
			<path id="XMLID_44_" class="st2" d="M1031.5,39.9h-4.3V38h4c0.2,0,0.4-0.2,0.4-0.4v-0.9c0-0.2-0.2-0.4-0.4-0.4h-9.5
				c-0.2,0-0.4,0.2-0.4,0.4v0.9c0,0.2,0.2,0.4,0.4,0.4h4v1.9h-4.3v9.2c0,0.2,0.2,0.4,0.4,0.4h0.9c0.2,0,0.4-0.2,0.4-0.4v-7.3
				c0-0.2,0.2-0.4,0.4-0.4h0.6c0.2,0,0.4,0.2,0.4,0.4v7.3c0,0.2,0.2,0.4,0.4,0.4h0.9c0.2,0,0.4-0.2,0.4-0.4v-7.3
				c0-0.2,0.2-0.4,0.4-0.4h0.6c0.2,0,0.4,0.2,0.4,0.4v7.3c0,0.2,0.2,0.4,0.4,0.4h0.9c0.2,0,0.4-0.2,0.4-0.4v-7.3
				c0-0.2,0.2-0.4,0.4-0.4h0.6c0.2,0,0.4,0.2,0.4,0.4v7.3c0,0.2,0.2,0.4,0.4,0.4h0.9c0.2,0,0.4-0.2,0.4-0.4V39.9z"/>
			<g id="XMLID_42_">
				<circle class="st1" cx="1011.6" cy="28.2" r="3.6"/>
			</g>
		</g>
	</g>
</g>
<g id="_x32_">
	<g>
		<g>
			<g id="South_America_2_">
				<path class="st3" d="M239.7,521.8v4.7l2.4-2.4C242.1,521.9,239.8,521.8,239.7,521.8z"/>
				<path class="st3" d="M270.6,495.7h-4.8v4.7c3.9,0,4.6-3.1,4.7-4.4L270.6,495.7z"/>
				<path class="st3" d="M398.6,547.9v-9.5c-0.2,0-4.7-0.1-4.7-4.7h-4.7l0-0.3c-0.1-1.3-0.9-4.4-4.7-4.4h-14.2l0-0.3
					c-0.1-1.3-0.9-4.4-4.7-4.4h-4.7c-0.2,0-4.7-0.1-4.7-4.7v-4.7c0-0.2-0.1-4.5-4.4-4.7l-0.3,0l0-0.3c-0.2-4.3-4.6-4.4-4.7-4.4H337
					c-0.2,0-4.7-0.1-4.7-4.7h-4.7l0-0.3c-0.1-1.5-1.1-9.2-9.5-9.2h-19c0,0-2.9,0-4.1,2.2l-0.6,1.1v-8c-3.9,0-4.6,3.1-4.7,4.4l0,0.3
					l-0.3,0c-6.4,0.1-8.3,4.7-8.9,7.4l-0.2,1l-0.4-1c-1.1-2.7-4.4-2.7-4.4-2.7h-4.6l0.2,0c4.4,0.2,4.4,4.5,4.4,4.7v0
					c4.7,0,4.7,4.5,4.7,4.7v4.7c0,4.7-4.5,4.7-4.7,4.7h0v4.7l-0.3,0c-1.3,0.1-4.4,0.9-4.4,4.7v14.2c0,2.5,1.3,3.6,2.4,4.2
					c0.8,0.4,1.7,0.5,2.1,0.6l0.3,0v4.7c0,3.9,3.1,4.6,4.4,4.7l0.3,0v4.7l4.7,4.7l0,0.1c0.1,9.2,9.4,9.4,9.5,9.4h4.7v28.5l-0.3,0
					c-2.2,0.1-3.3,1.3-3.8,2.4c-0.6,1.2-0.6,2.3-0.6,2.4v23.7l-0.3,0c-4.3,0.2-4.4,4.6-4.4,4.7v33.2h-4.7c0,3.9,3.1,4.6,4.4,4.7
					l0.3,0v4.7l-0.3,0c-4.3,0.2-4.4,4.6-4.4,4.7v4.7c0,2.5,1.3,3.6,2.4,4.2c0.8,0.4,1.7,0.5,2.1,0.6l0.3,0v4.7
					c0,0.2,0.1,4.7,4.7,4.7c4.7,0,4.7,4.5,4.7,4.7c0,4.6,4.5,4.7,4.7,4.7v-4.7l9.2,0c-1.7-0.1-9.2-1-9.2-9.5v-9.5l0.3,0
					c4.3-0.2,4.4-4.6,4.4-4.7V676l0.3,0c2.2-0.1,3.3-1.3,3.8-2.4c0.6-1.2,0.6-2.3,0.6-2.4c-0.2,0-4.7-0.1-4.7-4.7
					c0-4.7,4.5-4.7,4.7-4.7h0v-14.2h4.7c4.7,0,4.7-4.6,4.7-4.7v-4.7h4.7c4.9,0,7.2-2.6,8.3-4.7c0.9-1.9,1.1-3.7,1.2-4.4l0-0.3l0.3,0
					c1.5-0.1,9-1,9.2-9.2l0-0.3l0.3,0c1.3-0.1,4.3-0.8,4.4-4.4l0-0.3l0.3,0c1.3-0.1,4.4-0.9,4.4-4.7c0-4.7,4.5-4.7,4.7-4.7h0v-9.5
					l4.7-4.7l0.1,0c0.7,0,4.4-0.5,4.6-4.4l0-0.3h9.5v-4.7l0.3,0c1.3-0.1,4.4-0.9,4.4-4.7v-14.2c0-0.2,0.1-4.7,4.7-4.7
					c4,0,4.6-3.4,4.7-4.5l0-0.3l0.3,0C395.2,552.6,398.6,551.9,398.6,547.9z M301,566.9c-0.9-0.1-1.5-0.6-1.8-1.4l-0.1-0.2
					c0-0.1,0-0.2-0.1-0.2l-0.1-0.5l0.5,0.1c1,0.2,1.6,0.9,1.8,1.9l0.1,0.5L301,566.9z M308.5,576.4h-2.4l0-0.4c0.2-1.5,1.4-1.9,2-2
					l0.4-0.1V576.4z M308.8,547.9h-0.7H308.8L308.8,547.9z M319.9,502.8c-1-0.1-1.7-0.8-1.9-1.9l-0.1-0.4l0.4,0.1
					c1,0.1,1.7,0.8,1.9,1.9l0.1,0.4L319.9,502.8z M334.6,592.1c-0.2,0-0.3-0.2-0.3-0.3c0-0.2,0.1-0.3,0.3-0.3c0.2,0,0.3,0.1,0.3,0.3
					C334.9,592,334.8,592.1,334.6,592.1z M341.7,617.1c-0.1,0.3-0.1,0.6-0.3,0.8c-0.4,0.8-1.1,1.2-2.1,1.2h-2.4l0.1-0.4
					c0.1-0.6,0.5-2,2.3-2h2.4L341.7,617.1z"/>
				<path class="st3" d="M289.5,699.7c0,2.3,2.3,2.4,2.4,2.4C291.9,699.8,289.6,699.7,289.5,699.7z"/>
				<path class="st3" d="M294.3,704.5c0,2.3,2.3,2.4,2.4,2.4C296.6,704.5,294.4,704.5,294.3,704.5z"/>
				<path class="st3" d="M306.1,706.9v2.4c0.1,0,2.4,0,2.4-2.4H306.1z"/>
				<path class="st3" d="M332.2,690.3l0-0.3c-0.2-2-2.3-2.1-2.4-2.1v2.4h-2.4c-1,0-1.7,0.4-2.1,1.2c-0.3,0.6-0.3,1.2-0.3,1.2h7.1
					c2.3,0,2.4-2.3,2.4-2.4H332.2z"/>
			</g>
			<g id="Oceania_2_">
				<path class="st4" d="M899.1,545.6v-2.4h4.7c2.4,0,2.4,2.4,2.4,2.4c0,2.4,2.4,2.4,2.4,2.4l2.4,2.4h7.1c0-2.4-2.4-2.4-2.4-2.4
					c-4.7,0-4.7-4.7-4.7-4.7c-2.4,0-2.4-2.4-2.4-2.4c2.4,0,2.4-2.4,2.4-2.4h-2.4c-2.4,0-2.4-2.4-2.4-2.4c0-2.4-2.4-2.4-2.4-2.4h-2.4
					c0-2.4-2.4-2.4-2.4-2.4h-4.7c0-2.4-2.4-2.4-2.4-2.4v19h4.7C899.1,547.9,899.1,545.6,899.1,545.6z"/>
				<path class="st4" d="M922.9,536.1v-2.4c-2.4,0-2.4,2.4-2.4,2.4h-4.7c-2.4,0-2.4,2.4-2.4,2.4h7.1
					C922.9,538.4,922.9,536.1,922.9,536.1z"/>
				<path class="st4" d="M925.2,531.3v2.4h2.4C927.6,531.3,925.2,531.3,925.2,531.3z"/>
				<path class="st4" d="M920.5,547.9c0,0,0-2.4-2.4-2.4C918.1,545.6,918.1,547.9,920.5,547.9z"/>
				<path class="st4" d="M925.2,552.7c0,0,0,2.4,2.4,2.4C927.6,555,927.6,552.7,925.2,552.7z"/>
				<path class="st4" d="M932.4,538.4c0,0,0-2.4-2.4-2.4v2.4c0,0,0,2.4,2.4,2.4h2.4C934.7,540.8,934.7,538.4,932.4,538.4z"/>
				<path class="st4" d="M934.7,543.2c0,0,2.4,0,2.4-2.4C937.1,540.8,934.7,540.8,934.7,543.2z"/>
				<path class="st4" d="M941.8,543.2c0,0,0,2.4,2.4,2.4C944.2,545.6,944.2,543.2,941.8,543.2z"/>
				<path class="st4" d="M937.1,543.2c0,0,0,2.4,2.4,2.4C939.5,545.6,939.5,543.2,937.1,543.2z"/>
				<path class="st4" d="M946.6,550.3v-2.4h-2.4C944.2,547.9,944.2,550.3,946.6,550.3z"/>
				<path class="st4" d="M949,545.6h-2.4c0,0,0,2.4,2.4,2.4V545.6z"/>
				<path class="st4" d="M949,550.3c0,0,0,2.4,2.4,2.4C951.3,552.7,951.3,550.3,949,550.3z"/>
				<path class="st4" d="M963.2,550.3c-2.4,0-2.4,2.4-2.4,2.4C963.2,552.7,963.2,550.3,963.2,550.3z"/>
				<path class="st4" d="M963.2,564.5c0,0,0-2.4-2.4-2.4C960.8,562.2,960.8,564.5,963.2,564.5z"/>
				<path class="st4" d="M965.6,566.9c0-2.4-2.4-2.4-2.4-2.4C963.2,566.9,965.6,566.9,965.6,566.9z"/>
				<path class="st4" d="M967.9,569.3c0-2.4-2.4-2.4-2.4-2.4C965.6,569.3,967.9,569.3,967.9,569.3z"/>
				<path class="st4" d="M970.3,576.4V574h-2.4C967.9,576.4,970.3,576.4,970.3,576.4z"/>
				<path class="st4" d="M994,574c2.4,0,2.4-2.4,2.4-2.4s-2.4,0-2.4-2.4c0,0,0,2.4-2.4,2.4C991.7,571.6,991.7,574,994,574z"/>
				<path class="st4" d="M998.8,566.9c-2.4,0-2.4,2.4-2.4,2.4h4.7C1001.1,566.9,998.8,566.9,998.8,566.9z"/>
				<path class="st4" d="M1020.1,559.8c0,0,0,2.4,2.4,2.4c0,0,0-2.4,2.4-2.4H1020.1z"/>
				<path class="st4" d="M956.1,578.8c0,0,0,7.1,7.1,7.1L956.1,578.8z"/>
				<path class="st4" d="M965.6,583.5c0,0,0-2.4-2.4-2.4C963.2,581.1,963.2,583.5,965.6,583.5z"/>
				<path class="st4" d="M1013,581.1c0,0,0,2.4,2.4,2.4C1015.4,583.5,1015.4,581.1,1013,581.1z"/>
				<path class="st4" d="M982.2,647.6l-2.4-2.4c0,0,0,2.4-2.4,2.4v2.4c0,0,0,2.4-2.4,2.4c0,0,0,4.7-4.7,4.7c0,0-4.7,0-4.7,4.7
					c0,0-2.4,0-2.4,2.4v2.4c0,0,0,2.4,2.4,2.4v2.4c0,0,2.4,0,2.4-2.4h4.7c0,0,0-2.4,2.4-2.4v-4.7c0,0,2.4,0,2.4-2.4
					c0,0,4.7,0,4.7-4.7c0,0,0-2.4,2.4-2.4v-2.4C984.5,649.9,984.5,647.6,982.2,647.6z"/>
				<path class="st4" d="M989.3,633.3c0,0,0-2.4-2.4-2.4l-4.7-4.7v2.4l4.7,4.7v2.4c0,0,0,4.7-4.7,4.7c0,0,0,2.4,2.4,2.4h2.4v7.1
					c0,0,4.7,0,4.7-4.7v-2.4c0,0,0-2.4,2.4-2.4c0,0,2.4,0,2.4-2.4v-2.4h-7.1V633.3z"/>
				<path class="st4" d="M920.5,590.6c0,0,0-4.7-4.7-4.7v-4.7c0,0,0-4.7-4.7-4.7s-4.7-4.7-4.7-4.7v-4.7c0,0,0-4.7-4.7-4.7
					s-4.7-4.7-4.7-4.7v-4.7c0,0-4.7,0-4.7,4.7v9.5c0,0,0,4.7-4.7,4.7c0,0,0-4.7-4.7-4.7c-4.7,0-4.7-4.7-4.7-4.7v-4.7h-4.7
					c-4.7,0-4.7-4.7-4.7-4.7c-9.5,0-9.5,9.5-9.5,9.5h-9.5l-9.5,9.5c-4.7,0-4.7,4.7-4.7,4.7s0,0-4.7,0c-4.7,0-4.7,4.7-4.7,4.7
					s0,0-4.7,0c-4.7,0-4.7,4.7-4.7,4.7v23.7c0,4.7,4.7,4.7,4.7,4.7v9.5c0,0,0,4.7,4.7,4.7s4.7-4.7,4.7-4.7h9.5
					c4.7,0,4.7-4.7,4.7-4.7h9.5c0-4.7,4.7-4.7,4.7-4.7h9.5c0,0,0,4.7,4.7,4.7c0,0,0,4.7,4.7,4.7c0,0,0-4.7,4.7-4.7v9.5
					c0,0,4.7,0,4.7,4.7s4.7,4.7,4.7,4.7h19c4.7,0,4.7-4.7,4.7-4.7v-4.7c0,0,4.7,0,4.7-4.7c0-4.7,4.7-4.7,4.7-4.7v-14.2v-9.5
					C925.2,595.4,925.2,590.6,920.5,590.6z"/>
				<path class="st4" d="M901.5,652.3c0,0,0,4.7,4.7,4.7s4.7-4.7,4.7-4.7v-4.7h-9.5V652.3z"/>
			</g>
			<g id="North_America_2_">
				<path class="st5" d="M450.8,97.2h-4.7v9.5l-0.4,0c-4.3-0.2-4.4-4.6-4.4-4.7v0c-4.7,0-4.7,4.6-4.7,4.7v4.7l-0.3,0
					c-1.3,0.1-4.4,0.9-4.4,4.7c0,4-3.4,4.6-4.4,4.7l-0.4,0v-4.8l0.3,0c4.3-0.2,4.4-4.6,4.4-4.7v-19c-0.3,0-0.6,0-0.9,0.1l0-0.2
					l-1.1,0.5c-2.6,1.1-2.6,4.3-2.6,4.3c0,8.5-7.6,9.4-9.1,9.5l-0.4,0l0-0.4c0.2-4.3,4.6-4.4,4.7-4.4h0v-4.7h-9.5
					c-3.9,0-4.6,3.1-4.7,4.4l0,0.3h-4.7l0-0.3c0.2-9,9.1-9.1,9.5-9.1h14.2c0.9,0,1.7-0.1,2.4-0.2l1.3-0.3l0-0.1
					c2.1-0.7,3.6-2.1,4.6-4.2c1.2-2.3,1.2-4.6,1.2-4.7c0-4.7-4.6-4.7-4.7-4.7h-8l1.1-0.6c2.1-1.3,2.2-4,2.2-4.1h-9.5l0-0.3
					c-0.1-1.3-0.9-4.4-4.7-4.4c-3.9,0-4.6,3.1-4.7,4.4l0,0.3h-4.7l0-0.3c-0.2-4.3-4.6-4.4-4.7-4.4h-4.7c-4.7,0-4.7,4.6-4.7,4.7v4.8
					l-0.4,0c-4.3-0.2-4.4-4.6-4.4-4.7v0c-4.7,0-4.7-4.5-4.7-4.7v0h-4.7c0,8.4,7.6,9.4,9.2,9.5l0.3,0v3.2l-0.6-1.1
					c-0.4-0.7-1-1.2-1.7-1.6c-1.2-0.6-2.3-0.6-2.4-0.6h-9.5V83c0,1.9,0.8,3.3,2.3,4.1l1.2,0.6h-3.5l0-0.3c-0.1-2.2-1.3-3.3-2.4-3.8
					c-1.2-0.6-2.3-0.6-2.4-0.6l-4.4,0c4.3,0.2,4.4,4.5,4.4,4.7c0,3.9,3.1,4.6,4.4,4.7l0.3,0v9.5l-0.4,0c-4.3-0.2-4.4-4.6-4.4-4.7
					v-4.7c-4.7,0-4.7-4.6-4.7-4.7v0c-4.7,0-4.7-4.5-4.7-4.7v0c-0.2,0-4.7,0.1-4.7,4.7c0,3.9,3.1,4.6,4.4,4.7l0.3,0v9.5l-0.4,0
					c-4.3-0.2-4.4-4.6-4.4-4.7v0c-2.4,0-3.6,1.2-4.1,2.3l-0.6,1.2v-8.2c0-4.6-4.5-4.7-4.7-4.7c0,4.7-4.5,4.7-4.7,4.7l-4.7,0v8.3
					l-0.6-1.2c-0.8-1.5-2.2-2.3-4.1-2.3c-4.7,0-4.7,4.6-4.7,4.7v9.5H318c0,9.4-9.1,9.5-9.5,9.5h0v9.5h4.7v9.5c0,4.7-4.5,4.7-4.7,4.7
					h-4.7c-0.2,0-4.7,0.1-4.7,4.7c0,4.7-4.5,4.7-4.7,4.7h-4.7c0,8.4,7.6,9.4,9.2,9.5l0.3,0v4.7c2.7,0,3.9-1.6,4.4-3l0.3-0.9l0.3,0.9
					c0.4,1,1.1,1.8,2.1,2.4c0.2,0.1,0.4,0.2,0.6,0.2l0.9,0.3l-0.9,0.3c-2.3,0.8-2.8,3.2-2.9,4.2l0,0.3h-9.5c0,4.7,4.6,4.7,4.7,4.7
					h4.7v4.7c0,4.6,4.5,4.7,4.7,4.7v-4.8l0.4,0c4.3,0.2,4.4,4.6,4.4,4.7v0c3.9,0,4.6-3.1,4.7-4.4l0-0.3h4.7l0,0.3
					c0.2,4.3,4.6,4.4,4.7,4.4c4.7,0,4.7,4.5,4.7,4.7v4.7c4.7,0,4.7,4.5,4.7,4.7v9.5c4.7,0,4.7,4.5,4.7,4.7v19c2.7,0,3.9-1.6,4.4-3
					l0.3-0.9l0.3,0.9c0.8,2.4,3.2,2.8,4.2,2.9l0.3,0v4.7h-4.7c0,3.9,3.1,4.6,4.4,4.7l0.3,0l0,9.5l-0.3,0c-2.2,0.1-3.3,1.3-3.8,2.4
					c-0.6,1.2-0.6,2.3-0.6,2.4v19c4.7,0,4.7,4.5,4.7,4.7v9.5c4.7,0,4.7,4.5,4.7,4.7c0,9.3,9.4,9.5,9.5,9.5c4.7,0,4.7,4.6,4.7,4.7v0
					h4.7v-9.5l0.3,0c2.2-0.1,3.3-1.3,3.8-2.4c0.6-1.2,0.6-2.3,0.6-2.4v-14.2c0-4.7,4.5-4.7,4.7-4.7c3.9,0,4.6-3.1,4.7-4.4l0-0.3h4.7
					c4.9,0,7.2-2.6,8.3-4.7c1.2-2.3,1.2-4.6,1.2-4.7c0-4.7,4.5-4.7,4.7-4.7h4.7c3.9,0,4.6-3.1,4.7-4.4l0-0.3h4.7
					c9.3,0,9.5-9.4,9.5-9.5c-4.7,0-4.7-4.6-4.7-4.7v0c-3.9,0-4.6,3.1-4.7,4.4l0,0.3h-4.7l0-0.3c-0.1-2.5-1.7-3.6-2.9-4.1l-0.9-0.3
					l0.9-0.3c1-0.4,1.8-1.1,2.4-2.1c0.4-0.8,0.5-1.6,0.6-2.1l0-0.3h4.7c0-1.9-0.8-3.3-2.3-4.1l-1.2-0.6h3.5c4.7,0,4.7,4.5,4.7,4.7
					c0,0.2,0.1,4.7,4.7,4.7s4.7-4.6,4.7-4.7v-4.7c-8.5,0-9.4-7.6-9.5-9.1l0-0.4h4.8c0-3.9-3.1-4.6-4.4-4.7l-0.3,0v-3.5l0.6,1.2
					c0.8,1.5,2.2,2.3,4.1,2.3c4.7,0,4.7-4.6,4.7-4.7v-4.7h4.7v-4.7c0-2.7-1.6-3.9-3-4.4l-0.9-0.3l0.9-0.3c2.9-1,2.9-4.4,2.9-4.5
					v-4.7c0-4.7-4.6-4.7-4.7-4.7c-4,0-4.6-3.4-4.7-4.4l0-0.4h9.5c4.7,0,4.7-4.6,4.7-4.7v-4.7h-8l1.1-0.6c2.1-1.3,2.2-4,2.2-4.1h-4.7
					v-14.2l0.3,0c4.3-0.2,4.4-4.6,4.4-4.7v-4.7c0-4.7,4.6-4.7,4.7-4.7h0v-4.7c-3.9,0-4.6,3.1-4.7,4.4l0,0.3l-0.3,0
					c-1-0.1-4.4-0.7-4.4-4.7c0-4.7,4.5-4.7,4.7-4.7h9.5c0-4.7-4.6-4.7-4.7-4.7h-4.7c-1.6,0-2.8,0.5-3.7,1.6l-1.2,1.5l0.6-1.8
					c1.9-6,8.7-6,9-6h4.7c0.2,0,4.7-0.1,4.7-4.7c0-4.7,4.6-4.7,4.7-4.7h0C460.3,97.4,450.9,97.2,450.8,97.2z"/>
				<path class="st5" d="M294.3,170.8v-2.4h-2.4C291.9,168.5,291.9,170.8,294.3,170.8z"/>
				<path class="st5" d="M347.6,244.6c-0.3-0.2-0.7-0.2-0.9-0.3l-0.3,0l0-0.3c-0.2-2.1-2.3-2.1-2.4-2.1h-2.4v4.7
					c0,2.3,2.3,2.4,2.4,2.4h4.7v-2.4C348.8,245.7,348.4,245,347.6,244.6z"/>
				<path class="st5" d="M446.1,194.5c0,0,0-0.6-0.3-1.2c-0.4-0.8-1.1-1.2-2.1-1.2v4.7h2.4V194.5z"/>
				<path class="st5" d="M446.1,163.7v2.4c0.1,0,2.4,0,2.4-2.4H446.1z"/>
				<path class="st5" d="M443.7,158.9c0-2.3-2.3-2.4-2.4-2.4C441.3,158.9,443.6,158.9,443.7,158.9z"/>
				<path class="st5" d="M448.2,145.9c-0.4-0.8-1.1-1.2-2.1-1.2v2.4h2.4C448.5,147,448.4,146.4,448.2,145.9z"/>
				<polygon class="st5" points="443.7,151.8 443.7,154.2 446.1,151.8 				"/>
				<path class="st5" d="M441.3,99.6c0,0,0,0.6,0.3,1.2c0.4,0.8,1.1,1.2,2.1,1.2C443.7,101.9,443.7,99.6,441.3,99.6z"/>
				<path class="st5" d="M436.6,92.5v2.4c0,0.1,0,2.4,2.4,2.4h2.4l-2.4-2.4l0-0.1C438.9,94.5,438.8,92.5,436.6,92.5z"/>
				<path class="st5" d="M443.7,94.9c0-0.1,0-2.4-2.4-2.4c0,0,0,0.6,0.3,1.2C442,94.5,442.7,94.9,443.7,94.9z"/>
				<path class="st5" d="M275.3,453h-14.2c-4.6,0-4.7,4.5-4.7,4.7h14.2l0,0.3c0.1,2.2,1.3,3.3,2.4,3.8c1.2,0.6,2.3,0.6,2.4,0.6
					c4,0,4.6,3.3,4.7,4.4h0c0.2-4.3,4.5-4.4,4.7-4.4h0C284.8,453.2,275.4,453,275.3,453z"/>
				<path class="st5" d="M280,469.7h-4.7c0,0.1,0,2.4,2.4,2.4h4.7C282.4,471.9,282.4,469.7,280,469.7z"/>
				<path class="st5" d="M301.4,467c0-0.2-0.1-0.6-0.3-0.9c-0.4-0.8-1.1-1.2-2.1-1.2l-9.2,0c1.5,0.2,1.9,1.4,2,2l0.1,0.4h-2.4
					c-2.3,0-2.4,2.3-2.4,2.4h7.1v2.4c0.1,0,2.2,0,2.4-2.1l0-0.3h4.7c0.8,0,2.2,0.4,2.4,2h0v-4.4h-2.4L301.4,467z"/>
				<path class="st5" d="M324.8,474.4L324.8,474.4l-2,0v2l0,0C322.9,475.6,323.4,474.6,324.8,474.4z"/>
				<path class="st5" d="M308.5,472h2.4v-2.4h-4.4v0C307.3,469.8,308.5,470.4,308.5,472z"/>
				<path class="st5" d="M26.2,310.7c0,0.1,0,2.4,2.4,2.4c2.1,0,2.3-1.8,2.4-2.2l0-0.2l-2.4-2.4C28.5,308.3,26.2,308.4,26.2,310.7z"
					/>
				<path class="st5" d="M67.2,322.7l-0.6-0.1l2.3-2.3h-2.4v2.4l-0.3,0c-1.7,0.2-2,1.6-2,2.1l0,0.3h-2.4v2.4h2.4
					c0.1,0,2.2,0,2.4-2.1l0-0.3h2.4c0,0,0-0.6-0.3-1.2C68.4,323.4,68,322.8,67.2,322.7z"/>
				<path class="st5" d="M83.2,310.7c-1,0-1.7,0.4-2.1,1.2c-0.3,0.6-0.3,1.2-0.3,1.2c1,0,1.7-0.4,2.1-1.2
					C83.1,311.3,83.2,310.7,83.2,310.7z"/>
				<path class="st5" d="M28.6,343.9v-2.4c-0.1,0-2.4,0-2.4,2.4H28.6z"/>
				<path class="st5" d="M23.9,343.9c-0.1,0-2.4,0-2.4,2.4c0,0,0.6,0,1.2-0.3C23.5,345.6,23.9,344.9,23.9,343.9z"/>
				<path class="st5" d="M121.1,332.1c0,1,0.4,1.7,1.2,2.1c0.3,0.2,0.7,0.2,0.9,0.3l0.3,0v2.4h2.4
					C125.9,332.2,121.3,332.1,121.1,332.1z"/>
				<path class="st5" d="M275.3,448.3c0,0.1,0,2.4,2.4,2.4c0,0,0-0.6-0.3-1.2C277,448.7,276.3,448.3,275.3,448.3z"/>
				<path class="st5" d="M282.4,448.3c0,0.1,0,2.4,2.4,2.4c0,0,0-0.6-0.3-1.2C284.1,448.7,283.4,448.3,282.4,448.3z"/>
				<path class="st5" d="M146.9,230.1l0.3,0l0,0.3c0.2,4.4,4.5,4.4,4.7,4.4l4.7-4.7v-4.7l0.3,0c3.9-0.2,4.4-3.9,4.4-4.6l0-0.1
					l4.7-4.7c0-4.7,4.6-4.7,4.7-4.7h0l-4.7-4.7h-4.7c-4.7,0-4.7-4.5-4.7-4.7v0h-4.7c-2.5,0-3.6,1.3-4.2,2.4
					c-0.6,1.2-0.6,2.3-0.6,2.4v14.2c0,4.7-4.5,4.7-4.7,4.7h0C142.5,229.2,145.6,229.9,146.9,230.1z"/>
				<path class="st5" d="M166.2,187.4c0,0-1.2,0-2.4,0.6c-1.1,0.5-2.4,1.7-2.4,4.2c0,0,1.2,0,2.4-0.6
					C164.9,191,166.2,189.8,166.2,187.4z"/>
				<path class="st5" d="M156.7,187.4c3.9,0,4.6-3.1,4.7-4.4l0-0.3l0.3,0c2.3-0.1,3.3-1.3,3.9-2.4c0.4-0.8,0.5-1.6,0.6-2.1l0-0.3
					h4.7v9.5c0,4.7-4.6,4.7-4.7,4.7h0c0,0.2,0.1,4.7,4.7,4.7c3.5,0,4.4-2.5,4.7-4.1l0.1-0.6l4.7,4.7l-0.7,0.1c-3.9,0.4-4,4.5-4,4.7
					h4.7c2.5,0,3.6-1.3,4.2-2.4c0.4-0.8,0.5-1.6,0.6-2.1l0-0.3h9.5c0.2,0,4.7-0.1,4.7-4.7v-4.7h-4.7v-4.7c0-0.2-0.1-4.7-4.7-4.7
					c-4.6,0-4.7,4.5-4.7,4.7h4.7v9.5h-4.7l0-0.3c-0.1-2.2-1.3-3.3-2.4-3.8c-0.8-0.4-1.6-0.5-2.1-0.6l-0.3,0v-4.7h-4.7l0-0.3
					c-0.2-3.6-3.2-4.3-4.4-4.4l-0.3,0v-4.7c0-0.2-0.1-4.7-4.7-4.7c-2.5,0-3.6,1.3-4.2,2.4c-0.4,0.8-0.5,1.7-0.6,2.1l0,0.3l-0.3,0
					c-1,0.1-4.5,0.7-4.5,4.7c0,4.7-4.6,4.7-4.7,4.7h0C151.9,182.8,152,187.4,156.7,187.4z"/>
				<path class="st5" d="M170.9,158.9c0,0.2,0.1,4.5,4.4,4.7l0.3,0l0,0.3c0.2,4.3,4.5,4.4,4.7,4.4c0.2,0,4.7-0.1,4.7-4.7v-4.7h-4.7
					c0,0-3.5,0.1-4.5,3l-0.3,0.9l-0.3-0.9C174.8,160.5,173.7,158.9,170.9,158.9z"/>
				<path class="st5" d="M175.7,154.2h9.5v-4.7h-4.7C180.2,149.4,175.7,149.5,175.7,154.2z"/>
				<path class="st5" d="M251.6,287c0,0.2,0.1,4.7,4.7,4.7c3.9,0,4.6-3.1,4.7-4.4l0-0.3h4.7l0,0.3c0.1,1.3,0.9,4.4,4.7,4.4V287
					c-0.2,0-4.7-0.1-4.7-4.7c0-4.7-4.6-4.7-4.7-4.7h-4.7c-0.2,0-4.7,0.1-4.7,4.7V287z"/>
				<path class="st5" d="M265.8,291.7c-0.2,0-4.7,0.1-4.7,4.7C261.3,296.5,265.8,296.4,265.8,291.7z"/>
				<path class="st5" d="M253.6,259.7c-0.4-0.8-1.1-1.2-2.1-1.2v2.4h2.4C253.9,260.9,253.9,260.3,253.6,259.7z"/>
				<path class="st5" d="M217.2,253.5c0.6,0.3,1.2,0.3,1.2,0.3h2.4v2.4h4.7c2.3,0,2.4-2.3,2.4-2.4v-2.4c0-2.2-2-2.4-2.2-2.4l-0.1,0
					l-4.7-4.7v4.7c0,1.9-1.5,2.4-2.4,2.4H216C216,252.4,216.4,253.1,217.2,253.5z"/>
				<path class="st5" d="M213.6,251.8L213.6,251.8l0,2h2v0c-0.2,0-0.5-0.1-0.9-0.3C214.1,253.2,213.7,252.6,213.6,251.8z"/>
				<polygon class="st5" points="213.6,237.2 213.6,239.6 216,239.6 				"/>
				<path class="st5" d="M210.1,255.9c0.8-0.4,1.2-1.1,1.2-2.1c-0.1,0-2.4,0-2.4,2.4C208.9,256.2,209.5,256.2,210.1,255.9z"/>
				<path class="st5" d="M201.8,256.2c0,0.1,0,2.4,2.4,2.4c0,0,0-0.6-0.3-1.2C203.4,256.6,202.7,256.2,201.8,256.2z"/>
				<path class="st5" d="M194.6,213.5L194.6,213.5l0-0.3c-0.1-0.5-0.4-2.1-2.4-2.1c0,0,0,0.6,0.3,1.2
					C193,213.1,193.7,213.5,194.6,213.5z"/>
				<path class="st5" d="M213.6,244.3c0-4.7-4.6-4.7-4.7-4.7c-0.2,0-4.7-0.1-4.7-4.7v-4.7c-0.2,0-4.7-0.1-4.7-4.7v-4.7l0.3,0
					c1.3-0.1,4.4-0.9,4.4-4.7c0-4.7-4.6-4.7-4.7-4.7c0,0-2.9,0-4.1,2.2l-0.2,0.3l-0.1,0.3c-0.2,0.6-0.3,1.2-0.3,1.9v14.2l-0.4,0
					c-1-0.1-4.4-0.7-4.4-4.7v-4.7c0,0-3.4,0.1-4.4,2.8l-0.3,0.8l-0.3-0.8c-0.4-1-1.1-1.8-2.1-2.3c-1.2-0.6-2.3-0.6-2.4-0.6h-4.7
					v-4.7h-4.7l-4.7,4.7v4.7l-0.3,0c-2.2,0.1-3.3,1.3-3.8,2.4c-0.6,1.2-0.6,2.3-0.6,2.4h9.5l0,0.4c-0.2,4.3-4.6,4.4-4.7,4.4h0
					c0,2.5,1.3,3.6,2.4,4.2c0.2,0.1,0.4,0.2,0.6,0.2l0.9,0.3l-0.9,0.3c-2.9,1-2.9,4.4-2.9,4.5c0,0.2,0.1,4.7,4.7,4.7h4.7l0,0.3
					c0.1,1.3,0.9,4.4,4.7,4.4h9.5c0.2,0,4.5-0.1,4.7-4.4l0-0.3h4.7l0,0.3c0.1,1.3,0.9,4.4,4.7,4.4c4,0,4.6-3.4,4.7-4.5l0-0.3l0.3,0
					C210.2,248.9,213.6,248.3,213.6,244.3z"/>
				<path class="st5" d="M225.5,215.8c0,0-0.6,0-1.2,0.3c-0.2,0.1-0.4,0.3-0.6,0.4l-0.6,0.6v-6.1h-9.5v4.7c0,4.7-4.5,4.7-4.7,4.7h0
					c0,2.5,1.3,3.6,2.4,4.2c0.8,0.4,1.7,0.5,2.1,0.6l0.3,0l0,0.3c0.2,3.6,3.2,4.3,4.4,4.4l0.3,0v4.7c4.7,0,4.7-4.6,4.7-4.7v-11.8
					l0.3,0c0.3,0,0.6-0.1,0.9-0.3C225.1,217.5,225.5,216.8,225.5,215.8z"/>
				<path class="st5" d="M218.4,208.7c2.3,0,2.4-2.3,2.4-2.4C218.4,206.4,218.4,208.6,218.4,208.7z"/>
				<path class="st5" d="M315.6,303.6v-2.4h-2.4C313.2,301.3,313.3,303.6,315.6,303.6z"/>
				<path class="st5" d="M304.9,310.4c0.8-0.4,1.2-1.1,1.2-2.1c-0.1,0-2.4,0-2.4,2.4C303.8,310.7,304.4,310.7,304.9,310.4z"/>
				<path class="st5" d="M280,289.4v2.4c0.1,0,2.4,0,2.4-2.4H280z"/>
				<path class="st5" d="M277.7,294.1v-2.4h-2.4C275.3,294.1,277.6,294.1,277.7,294.1z"/>
				<path class="st5" d="M270.5,296.5v4.7c0,0,0,0.6,0.3,1.2c0.4,0.8,1.1,1.2,2.1,1.2v-4.7c0,0,0-0.6-0.3-1.2
					C272.2,296.9,271.5,296.5,270.5,296.5z"/>
				<path class="st5" d="M282.4,265.7c1,0,1.7-0.4,2.1-1.2c0.3-0.6,0.3-1.2,0.3-1.2v-4.7H280v4.7C280,263.4,280.1,265.7,282.4,265.7
					z"/>
				<path class="st5" d="M284.8,256.2c0,0.1,0,2.4,2.4,2.4l0,0.3v-0.3C287.2,258.4,287.1,256.2,284.8,256.2z"/>
				<path class="st5" d="M277.7,251.4c0.1,0,2.4,0,2.4-2.4C279.9,249,277.7,249.1,277.7,251.4z"/>
				<path class="st5" d="M273.6,249.7L273.6,249.7c-0.4,0.4-0.7,0.9-0.7,1.7v2.1c0,0.1,0,0.2,0,0.3c0.2,0,2.4-0.1,2.4-2.4V249
					C275.2,249,274.3,249.1,273.6,249.7L273.6,249.7z"/>
				<path class="st5" d="M275.3,244.3c0,0.1,0,2.4,2.4,2.4c0,0,0-0.6-0.3-1.2C277,244.7,276.3,244.3,275.3,244.3z"/>
				<path class="st5" d="M272.9,249c0,0,0-0.6-0.3-1.2c-0.4-0.8-1.1-1.2-2.1-1.2c0,0,0,0.6,0.3,1.2C271.2,248.6,271.9,249,272.9,249
					z"/>
				<path class="st5" d="M272.9,258.5c0.1,0,2.4,0,2.4-2.4C275.2,256.2,272.9,256.2,272.9,258.5z"/>
				<path class="st5" d="M250.4,242.2c-0.6-0.3-1.2-0.3-1.2-0.3c0,2.3,2.3,2.4,2.4,2.4C251.6,243.3,251.2,242.6,250.4,242.2z"/>
				<path class="st5" d="M204.1,192.1c-0.2,0-4.7,0.1-4.7,4.7C199.6,196.9,204.1,196.8,204.1,192.1z"/>
				<path class="st5" d="M223.1,192.4l0-0.3l0.3,0c0.2,0,0.6-0.1,0.9-0.3c0.8-0.4,1.2-1.1,1.2-2.1c0,0-0.6,0-1.2,0.3
					c-0.2,0.1-0.4,0.3-0.6,0.4l-0.6,0.6v-8.5c0-0.2-0.1-4.7-4.7-4.7h-4.7c-0.2,0-4.3,0.1-4.7,4l-0.1,0.7l-4.7-4.7v4.7
					c0,0.2,0.1,4.5,4.4,4.7l0.3,0l0,0.3c0.1,1.3,0.8,4.3,4.4,4.4l0.3,0v4.7h4.7C218.6,196.9,222.9,196.8,223.1,192.4z"/>
				<path class="st5" d="M227.8,201.6h4.7v-9.5h-4.7c-0.2,0-4.7,0.1-4.7,4.7C223.3,196.9,227.8,196.9,227.8,201.6z"/>
				<path class="st5" d="M242.4,187.4l-0.3,0v-4.7c0-0.2-0.1-4.7-4.7-4.7h-4.7l0-0.3c0-0.4-0.2-1.2-0.6-2.1
					c-0.5-1.1-1.7-2.4-4.2-2.4c-4.6,0-4.7,4.5-4.7,4.7c0.2,0,4.7,0.1,4.7,4.7h4.7c0.2,0,4.7,0.1,4.7,4.7v14.2h33.2v-9.5
					c0-0.2-0.1-4.7-4.7-4.7l-4.7,0c0,0.2-0.1,4.7-4.7,4.7h-9.5l0-0.3c0-0.4-0.2-1.2-0.6-2.1C245.7,188.7,244.6,187.5,242.4,187.4z"
					/>
				<path class="st5" d="M242.1,168.4v-4.7h-4.7C237.3,163.8,237.4,168.4,242.1,168.4z"/>
				<path class="st5" d="M227.8,168.4h4.7v-4.7C232.4,163.7,227.8,163.7,227.8,168.4z"/>
				<path class="st5" d="M204.1,168.4c0-0.2-0.1-4.7-4.7-4.7C199.4,163.8,199.5,168.4,204.1,168.4z"/>
				<path class="st5" d="M213.6,168.4c0-0.2-0.1-4.7-4.7-4.7C208.9,163.8,209,168.4,213.6,168.4z"/>
				<path class="st5" d="M204.1,158.9h4.7c0.2,0,4.7,0.1,4.7,4.7h4.7v-9.5h4.7v9.5h4.7c0.2,0,4.7-0.1,4.7-4.7c0-4-3.4-4.6-4.5-4.7
					l-0.3,0l0-0.3c-0.1-1-0.7-4.5-4.7-4.5c0,0-3.5,0.1-4.5,2.9l-0.3,0.9l-0.3-0.9c-0.1-0.2-0.2-0.4-0.2-0.6c-0.5-1-1.6-2.3-3.9-2.4
					l-0.3,0l0-0.3c-0.1-1.3-0.9-4.4-4.7-4.4h-9.5c0,0.2,0.1,4.5,4.4,4.7l0.3,0v4.7h-4.7C199.4,154.4,199.5,158.9,204.1,158.9z"/>
				<path class="st5" d="M218,130.4l0.3,0v4.7c0.2,0,4.7-0.1,4.7-4.7c-0.2,0-4.7-0.1-4.7-4.7h-4.7c0,0,0,1.2,0.6,2.4
					C214.7,129.1,215.8,130.3,218,130.4z"/>
				<path class="st5" d="M232.6,144.7h3.5l-1.2,0.6c-1.5,0.8-2.3,2.2-2.3,4.1c0,0.2,0.1,4.5,4.4,4.7l0.3,0v4.7h9.5v-4.7
					c0-0.2,0.1-4.7,4.7-4.7c4.7,0,4.7-4.6,4.7-4.7v-4.7h-4.7v-8.3l0.6,1.2c0.7,1.5,2,2.2,3.8,2.3l0.3,0l0,0.3
					c0.1,1.3,0.8,4.3,4.4,4.4l0.3,0v9.5h-4.7c-0.2,0-4.7,0.1-4.7,4.7v4.7h4.7v4.7c0,0,0,2.9,2.2,4.1l1.1,0.6h-3.2l0-0.3
					c-0.1-1.3-0.9-4.4-4.7-4.4c-4.6,0-4.7,4.5-4.7,4.7h0c0.2,0,4.5,0.1,4.7,4.4l0,0.4l-4.8,0c0,0.2-0.1,4.7-4.7,4.7
					c0,0,0,1.2,0.6,2.4c0.5,1.1,1.7,2.4,4.2,2.4h28.5c0.2,0,4.7-0.1,4.7-4.7h-4.7l0-0.3c-0.1-1.3-0.9-4.4-4.7-4.4h-4.8l0-0.4
					c0.1-1,0.7-4.4,4.7-4.4h4.7c0-0.2,0.1-4.7,4.7-4.7c4.7,0,4.7-4.6,4.7-4.7l0-9.5c-0.2,0-4.5-0.1-4.7-4.4l0-0.4l4.8,0
					c0-0.2,0.1-4.7,4.7-4.7c4.7,0,4.7-4.6,4.7-4.7c0-0.2,0.1-4.7,4.7-4.7v-4.7c0-0.4,0.1-9.5,9.5-9.5v0c0-0.2,0.1-4.7,4.7-4.7
					c4.6,0,4.7-4.5,4.7-4.7h-9.5c-0.2,0-4.5-0.1-4.7-4.4l0-0.4h9.5c0.1,0,9.5-0.1,9.5-9.5v-4.7c-0.2,0-4.7-0.1-4.7-4.7v-4.7h-4.7
					c-0.2,0-4.5,0.1-4.7,4.4l0,0.3H305l1.2-0.6c1.5-0.8,2.3-2.2,2.3-4.1v-4.7H299v-4.7c-0.2,0-4.5,0.1-4.7,4.4l0,0.3l-0.3,0
					c-1,0.1-3.4,0.6-4.2,2.9l-0.3,0.9l-0.3-0.9c-0.5-1.3-1.6-3-4.4-3H280c0,0,0,1.2,0.6,2.4c0.5,1,1.6,2.3,3.8,2.4l0.3,0V83l-0.4,0
					c-1-0.1-4.4-0.7-4.4-4.7h-4.7l0-0.3c-0.1-1.3-0.9-4.4-4.7-4.4v4.7l-0.3,0c-1.3,0.1-4.4,0.9-4.4,4.7v9.5l-4.7-4.7l0-0.1
					c0-0.8-0.5-4.6-4.7-4.6v4.7c0,0.2-0.1,4.7-4.7,4.7c-0.2,0-4.5,0.1-4.7,4.4l0,0.3h-4.7c-0.2,0-4.7,0.1-4.7,4.7h0
					c0.2,0,4.7,0.1,4.7,4.7v4.7c0,0,0,1.2,0.6,2.4c0.5,1,1.6,2.3,3.9,2.4l0.3,0l0,0.3c0.1,1.3,0.9,4.4,4.7,4.4h14.2
					c0.1,0,6.7-0.1,8.8-5.6l0.6-1.7v7.3c0,0.2-0.1,4.7-4.7,4.7h-9.5c0,0,0,1.2,0.6,2.4c0.5,1,1.6,2.3,3.8,2.4l0.3,0v4.8l-0.4,0
					c-1-0.1-4.4-0.7-4.4-4.7c0-4.7-4.6-4.7-4.7-4.7c0,0-2.9,0-4.1,2.2l-0.6,1.1v-3.3c0,0-2.9,0-4.1,2.2l-0.6,1.1v-3.2
					c0,0,0-1.2-0.6-2.4c-0.5-1.1-1.7-2.4-4.2-2.4c-0.2,0-4.7-0.1-4.7-4.7v-9.5c-0.2,0-4.5,0.1-4.7,4.4l0,0.3l-0.3,0
					c-1.3,0.1-4.4,0.9-4.4,4.7v23.7c0,0,0,1.2,0.6,2.4C229,143.4,230.1,144.7,232.6,144.7z"/>
				<path class="st5" d="M230.2,187.4c0,0.1,0,2.4,2.4,2.4C232.6,189.6,232.6,187.4,230.2,187.4z"/>
				<path class="st5" d="M227.8,187.4c0-0.1,0-2.4-2.4-2.4C225.5,185.1,225.5,187.4,227.8,187.4z"/>
				<path class="st5" d="M128.2,348.7v-4.7c-4.7,0-4.7-4.5-4.7-4.7c0-1-0.4-1.7-1.2-2.1c-0.6-0.3-1.2-0.3-1.2-0.3
					c0,1,0.4,1.7,1.2,2.1c0.3,0.1,0.6,0.2,0.9,0.3l0.3,0l0,4.7C123.5,344.1,123.6,348.7,128.2,348.7z"/>
				<path class="st5" d="M184.8,453l0.3,0l0,0.3c0,0.4,0.2,1.2,0.6,2.1c0.5,1.1,1.7,2.4,4.2,2.4l0-4.7l-9.5-9.5v4.7
					C180.4,448.5,180.5,452.8,184.8,453z"/>
				<path class="st5" d="M313.2,358.2h19c0-4,3.4-4.6,4.4-4.7l0.4,0v-4.7l0.3,0c4.3-0.2,4.4-4.5,4.4-4.7H337l0-0.3
					c-0.1-4.7-2.6-6.9-4.7-8c-2.3-1.2-4.6-1.2-4.7-1.2c-4.7,0-4.7-4.5-4.7-4.7v-9.5c0-2.5-1.3-3.6-2.4-4.2c-0.8-0.4-1.7-0.5-2.1-0.6
					l-0.3,0l0-0.3c-0.2-4.3-4.5-4.4-4.7-4.4c0,8.5-7.6,9.4-9.1,9.5l-0.4,0v-4.8c0-3.9-3.1-4.6-4.4-4.7l-0.3,0l0-0.3
					c0.2-3.7,3.3-4.3,4.4-4.4v0H299c-9.4,0-9.5-9.1-9.5-9.5v0H280c-4.7,0-4.7,4.6-4.7,4.7v19c4.7,0,4.7,4.5,4.7,4.7v9.5l-4.7,4.7
					v9.5c0,4-3.4,4.6-4.4,4.7l-0.3,0l0-0.3c-0.2-3.6-3.2-4.3-4.4-4.4l-0.3,0v-9.5c0-4.7-4.6-4.7-4.7-4.7h-9.5l0-0.3
					c-0.2-3.6-3.2-4.3-4.4-4.4l-0.3,0l0-0.3c-0.2-4.4-4.6-4.4-4.7-4.4h-4.7v-4.7c0-2.5-1.3-3.6-2.4-4.2c-0.8-0.4-1.6-0.5-2.1-0.6
					l-0.3,0l0-14.2c0-9.4,9.1-9.5,9.5-9.5h0V287l0.3,0c9-0.2,9.2-9.4,9.2-9.5c0-4.7,4.5-4.7,4.7-4.7h3.7l-0.6,0.6
					c-0.2,0.2-0.3,0.4-0.4,0.6c-0.3,0.6-0.3,1.2-0.3,1.2h2.4l0-2.4l0.3,0c4.3-0.2,4.4-4.6,4.4-4.7v-14.2c0-4.9-2.6-7.2-4.7-8.3
					c-0.4-0.2-0.8-0.4-1.3-0.5l-1.9-0.7h12.6c0,0,3.5-0.1,4.5-2.9l0.3-0.9l0.3,0.9c0.5,1.3,1.5,2.8,4.1,2.9l0.3,0l0,0.3
					c0,0.4,0.2,1.2,0.6,2.1c0.5,1,1.6,2.3,3.8,2.4l0.3,0v4.7c0,0,1.2,0,2.4,0.6c1.6,0.8,2.4,2.2,2.4,4.2v9.5l-0.3,0
					c-1.3,0.1-4.4,0.9-4.4,4.7c0,1.9,0.8,3.3,2.3,4.1l1.2,0.6H280c-0.2,0-4.7,0.1-4.7,4.7c0,4.7,4.6,4.7,4.7,4.7
					c0.2,0,4.5-0.1,4.7-4.4l0-0.3h4.7l0,0.3c0.1,1.3,0.8,4.3,4.4,4.4l0.3,0v4.7c0,0,0,1.2,0.6,2.4c0.5,1.1,1.7,2.4,4.2,2.4h4.7
					l0,0.3c0.1,1.3,0.9,4.4,4.7,4.4v-4.7h4.7V287c0,0,0-1.2-0.6-2.4c-0.5-1-1.6-2.3-3.8-2.4l-0.3,0l0-4.7c-0.2,0-4.5-0.1-4.7-4.4
					l0-0.4h4.8c0.2,0,4.7,0.1,4.7,4.7c0,4.6,4.5,4.7,4.7,4.7v-4.7l0.3,0c1.3-0.1,4.4-0.9,4.4-4.7c0-3.9-3.1-4.6-4.4-4.7l-0.3,0v-4.7
					c0-0.2-0.1-4.7-4.7-4.7h-4.7c-0.2,0-4.7-0.1-4.7-4.7V249c0-0.1,0-2.4-1.2-4.7c-1.1-2.1-3.3-4.6-8-4.7l-0.3,0v-4.7
					c0-0.2-0.1-4.7-4.7-4.7c-0.2,0-4.7-0.1-4.7-4.7c0-4.7-4.6-4.7-4.7-4.7c-0.2,0-4.5,0.1-4.7,4.4l0,0.3h-4.7v-4.7
					c0-0.2-0.1-4.5-4.4-4.7l-0.3,0v-4.7h-4.7c-0.2,0-4.7,0.1-4.7,4.7v17.8l-0.6-1.2c-0.7-1.5-2-2.2-3.8-2.3l-0.3,0v-14.2l0.3,0
					c1.3-0.1,4.4-0.9,4.4-4.7h-4.7c-0.1,0-9.5,0.1-9.5,9.5v9.5c0,0.1,0,2.4,1.2,4.7c1.1,2.1,3.3,4.6,8,4.7l0.3,0l0,0.3
					c0.1,1.3,0.8,4.3,4.4,4.4l0.3,0l0,14.2c0,4.7-4.5,4.7-4.7,4.7c-4.7,0-4.7-4.5-4.7-4.7v-4.7c-1.9,0-3.3,0.8-4.1,2.3l-0.6,1.2V249
					c-4.7,0-4.7-4.6-4.7-4.8v-4.7c0-3.9-3.1-4.6-4.4-4.7l-0.3,0v-14.2h4.7v-4.7l0.3,0c1.3-0.1,4.4-0.9,4.4-4.7
					c0-4.7-4.6-4.7-4.8-4.7h-4.7c-4.7,0-4.7,4.6-4.7,4.7v23.7c0,4.7-4.6,4.7-4.7,4.7h0c0,4.9,2.6,7.2,4.7,8.3
					c1.9,0.9,3.7,1.1,4.4,1.2l0.3,0v9.5c0,4-3.4,4.6-4.4,4.7l-0.3,0l0-0.3c-0.1-1.3-0.9-4.4-4.7-4.4c-3.9,0-4.6,3.1-4.7,4.4l0,0.3
					h-14.2c-4.7,0-4.7-4.5-4.7-4.7c0-4.6-4.5-4.7-4.7-4.7V268l-0.4,0c-4.3-0.2-4.4-4.6-4.4-4.7v0h-14.2c-4,0-4.6-3.4-4.7-4.4l0-0.3
					l0.3,0c2.2-0.1,3.3-1.3,3.8-2.4c0.6-1.2,0.6-2.3,0.6-2.4h-9.5l0-0.3c-0.1-1.3-0.9-4.4-4.7-4.4h-4.7l0-0.3
					c-0.1-1.3-0.9-4.4-4.7-4.4c-2.4,0-3.6,1.2-4.1,2.3l-0.6,1.2v-3.5c-3.9,0-4.6,3.1-4.7,4.4l0,0.3l-0.3,0c-4.4-0.2-4.4-4.6-4.4-4.7
					v-4.7c-3.9,0-4.6,3.1-4.7,4.4l0,0.3h-4.7c-8.4,0-9.4,7.6-9.5,9.2l0,0.3l-4.7,0c-4.7,0-4.7-4.6-4.7-4.7v0h-4.7l0-0.3
					c-0.2-3.6-3.2-4.3-4.4-4.4l-0.2,0l-14.3,0c-4.7,0-4.7-4.6-4.7-4.7v0h-9.5l0-0.3c-0.2-4.3-4.6-4.4-4.7-4.4h-19
					c-4.9,0-7.2,2.6-8.3,4.7c-1.2,2.3-1.2,4.6-1.2,4.7c0,9.4-9.1,9.5-9.5,9.5l0,4.7c0.4,0,9.5,0.1,9.5,9.5c0.2,0,4.5,0.1,4.7,4.4
					l0,0.4h-4.7l0-0.3c-0.1-1.3-0.9-4.4-4.7-4.4v0c0,0.4-0.1,9.3-9.2,9.5v0c1.1,0.1,4.4,0.7,4.4,4.7c0,0.2,0.1,4.7,4.7,4.7v-4.7h9.5
					v9.5h-4.7c-0.1,0-2.4,0-4.7,1.2c-2.2,1.1-4.7,3.4-4.7,8.3h0c0.2,0,4.7,0.1,4.7,4.7c0,0.2,0.1,4.7,4.7,4.7h4.7v4.7
					c0,0.2,0.1,4.7,4.7,4.7h4.8l0,0.4c-0.1,1.5-1,9.1-9.5,9.1c-0.1,0-9.5,0.1-9.5,9.5l4.7,0c0-0.2,0.1-4.7,4.7-4.7h4.7
					c0.1,0,2.4,0,4.7-1.2c2.1-1.1,4.7-3.4,4.7-8.2l0-0.1l4.7-4.7l0.1,0c0.8,0,4.6-0.5,4.6-4.7l0-4.7c0,0,0-1.2,0.6-2.4
					c0.7-1.5,2-2.3,3.8-2.4l0.4,0v9.5c0.2,0,4.5-0.1,4.7-4.4l0-0.3l0.3,0c1.3-0.1,4.3-0.8,4.4-4.4l0-0.3h4.7l0,0.3
					c0,0.4,0.2,1.2,0.6,2.1c0.5,1.1,1.7,2.4,4.2,2.4l9.5,0c0,0,2.4,0,4.7,1.2c3.1,1.6,4.7,4.4,4.7,8.3c0.2,0,4.7,0.1,4.7,4.7
					c0,0,0,1.2,0.6,2.4c0.5,1.1,1.7,2.4,4.2,2.4c0.4,0,9.5,0.1,9.5,9.5c0,4.9,2.6,7.2,4.7,8.3c1.9,0.9,3.7,1.1,4.4,1.2l0.3,0l0,0.3
					c0.2,8.2,7.7,9.1,9.2,9.2l0.3,0l0,0.3c0.1,1.3,0.8,4.3,4.4,4.4l0.3,0v4.7h-4.7v-4.7c0-4.7-4.6-4.7-4.7-4.7l-4.4,0
					c4.3,0.2,4.4,4.5,4.4,4.7c0,3.9,3.1,4.6,4.4,4.7l0.3,0v33.2c0,0.1,0,2.4,1.2,4.7c1.1,2.1,3.3,4.6,8,4.7l0.3,0l0,0.3
					c0.1,1.5,1,9,9.1,9.2l0.3,0l0,4.7c0,0.2,0.1,4.5,4.4,4.7l0.3,0v4.7c0,0.2,0.1,4.5,4.4,4.7l0.3,0l0,4.7h4.7v-4.7l-4.7-4.7v-4.8
					l0.4,0c0.4,0,1.2,0.2,2,0.6c1.6,0.8,2.4,2.2,2.4,4.2l9.5,9.5v4.7l9.5,9.5v4.7c0.2,0,4.7,0.1,4.7,4.7c0,4.7,4.6,4.7,4.7,4.7h4.7
					l0,0.3c0.1,2.2,1.3,3.3,2.4,3.8c1.2,0.6,2.3,0.6,2.4,0.6h14.2c4.7,0,4.7,4.6,4.7,4.7v0h4.7l0,0.3c0,0.4,0.2,1.2,0.6,2.1
					c0.5,1.1,1.7,2.4,4.2,2.4h4.7l0,0.3c0.1,1.3,0.8,4.3,4.4,4.4l0.3,0l0,0.3c0,0.7,0.2,2.6,1.2,4.4c1.1,2.2,3.4,4.7,8.3,4.7l0-4.7
					c-0.2,0-4.7-0.1-4.7-4.7v-9.5c0-2.5-1.3-3.6-2.4-4.2c-1.2-0.6-2.3-0.6-2.4-0.6h-9.5v-9.5h4.7v-4.7c0-0.2-0.1-4.7-4.7-4.7
					c-2.5,0-3.6,1.3-4.2,2.4c-0.6,1.2-0.6,2.3-0.6,2.4c0,9.4-9.1,9.5-9.5,9.5c-0.2,0-4.7-0.1-4.7-4.7c0-3.9-3.1-4.6-4.4-4.7l-0.3,0
					v-19c0-9.4,9.1-9.5,9.5-9.5h23.7c0.4,0,9.5,0.1,9.5,9.5c0,0.2,0.1,4.7,4.7,4.7v-9.5c0-0.2-0.1-4.3-4-4.7l-0.7-0.1l4.7-4.7l0-4.7
					l0.3,0c2.2-0.1,3.3-1.3,3.8-2.4c0.4-0.8,0.5-1.6,0.6-2.1l0-0.3h4.7c4.7,0,4.7-4.6,4.7-4.7l0-4.7c-0.2,0-4.5-0.1-4.7-4.4l0-0.4
					h4.8c0,0,0-1.2,0.6-2.4c0.8-1.6,2.2-2.4,4.2-2.4l0-4.7h9.5l0-9.5l0.3,0c0.4,0,1.2-0.2,2.1-0.6c1-0.5,2.3-1.6,2.4-3.8l0-0.3h4.7
					c0.2,0,4.5-0.1,4.7-4.4l0-0.3h3.5l-1.2,0.6c-1.5,0.8-2.3,2.2-2.3,4.1v4.7c0.2,0,4.5-0.1,4.7-4.4l0-0.3h4.7
					c0-0.2,0.1-4.7,4.7-4.7v-4.7c0,0-3.4,0.1-4.4,2.8l-0.3,0.8l-0.3-0.8c-1-2.8-4.4-2.8-4.4-2.8c0,1.9,0.8,3.3,2.3,4.1l1.2,0.6H318
					c-0.2,0-4.7-0.1-4.7-4.7v-4.7h4.7c0-0.2-0.1-4.7-4.7-4.7c-2.5,0-3.6,1.3-4.2,2.4c-0.4,0.8-0.5,1.6-0.6,2.1l0,0.3h-8l1.1-0.6
					c1.7-1,2.1-3,2.2-3.8l0-0.3h4.7C308.5,358.2,313,358.2,313.2,358.2z M313.2,341.6l0.3,0c0.4-0.1,1.9-0.4,2.1-2l0-0.4l0.3,0.1
					c0.6,0.1,1.9,0.5,2,2.2l0,0.1l-2.4,2.4h-2.4V341.6z M294.3,277.5l4.7,4.7h-4.7V277.5z M253.9,270.4v2.4l-0.4,0
					c-1.5-0.2-1.9-1.4-2-2l-0.1-0.4H253.9z M246.8,275.1c0,0,0.6,0,1.2,0.3c0.8,0.4,1.2,1.1,1.2,2.1v2.4l-0.4-0.1
					c-0.6-0.1-2-0.5-2-2.3h-2.4l0-0.3c0-0.3-0.2-1-0.7-1.5l-0.6-0.6H246.8z M142.5,306.3l0-0.7h0V306.3z M163.8,277.5h-2.4
					c-1,0-1.7,0.4-2.1,1.2c-0.2,0.4-0.3,0.9-0.3,1.1l0,0.1l-2.4,2.4h-2.4l2.4-2.4v-2.4l-4.7,4.7l-2.3-2.3l0.6-0.1
					c0.6-0.2,1.7-0.7,1.7-2.3c0-1.9,1.5-2.4,2.4-2.4h2.4l-2.4-2.4h-4.7c-1,0-1.7,0.4-2.1,1.2c-0.2,0.3-0.2,0.7-0.3,0.9l0,0.3l-0.3,0
					c-1.6-0.2-1.9-1.4-2-2l-0.1-0.3l0.3,0c0.8-0.1,1.4-0.5,1.7-1.2c0.2-0.3,0.2-0.7,0.3-0.9l0-0.3h9.5l2.4-2.4h2.4l-2.4,2.4
					c0,2.3,2.3,2.4,2.4,2.4h2.4l2.4-2.4v4.7L163.8,277.5z M166.2,377.5L166.2,377.5L166.2,377.5l0-0.3L166.2,377.5l0-0.3l0-0.4
					l0,0.1l0-0.1l0,0l0,0.3L166.2,377.5z M175.7,306h-7.1l-2.4-2.4h4.7l2.4-2.4h2.4l-4.7-4.7v-2.4l2.4,2.4h2.4l0,0.3
					c0.1,0.8,0.5,1.4,1.2,1.8c0.6,0.3,1.2,0.3,1.2,0.3h2.4c2.3,0,2.4-2.3,2.4-2.4c0-1.9,1.5-2.4,2.4-2.4h4.8l0,0.4
					c-0.2,1.9-2.1,2-2.3,2h-2.4l-2.4,2.4c0,1.9-1.5,2.4-2.4,2.4h0L175.7,306z M180.4,396.1L180.4,396.1c-1.8,0-2.2-1.4-2.3-2
					l-0.1-0.4l0.4,0c3.6,0.2,4.2,3.4,4.3,4.3l0,0.4l-0.4-0.1C180.5,398.2,180.4,396.3,180.4,396.1z M185.1,410.8
					c-0.1,1-0.8,1.7-1.9,1.9l-0.4,0.1l0.1-0.4c0.1-1,0.8-1.7,1.9-1.9l0.4-0.1L185.1,410.8z M189.9,315.5l-2.4,2.4
					c0,1.8-1.4,2.2-2,2.3l-0.4,0.1v-2.4l2.4-2.4v-2.4l2.4-2.4h2.4l-2.4,2.4h2.4l2.4,2.4H189.9z M254.4,486.3c1,0.1,1.7,0.8,1.9,1.9
					l0.1,0.4l-0.4-0.1c-1-0.1-1.7-0.8-1.9-1.9l-0.1-0.4L254.4,486.3z M223.1,260.9v2.4l-2.4-2.4H223.1z M216,329.3
					c0.1-0.6,0.5-2,2.3-2v0c0-0.2,0.1-2.1,2-2.3l0.4,0v2.4l-0.3,0c-0.3,0-0.9,0.2-1.4,0.6l0,0h0c-0.3,0.3-0.6,0.8-0.6,1.4l0,0.3H216
					L216,329.3z M220.7,358.2l-0.4,0c-1.9-0.2-2-2.1-2-2.3c0-0.8-0.3-1.4-0.8-1.8l-0.4-0.3l-0.6-0.1c-0.2,0-0.4-0.1-0.5-0.1
					c-1.9,0-2.4-1.5-2.4-2.4l0-2.4c0-0.7-0.1-1.4-0.3-1.9l-0.2-0.5h0.5v-2.4h2.4l2.4,2.4H216v4.7c0,0.8,0.3,1.4,0.8,1.8l0.4,0.3
					l0.6,0.1c0.1,0,0.3,0,0.4,0.1l0.1,0l2.4,2.4V358.2z M223.1,387L223.1,387l0-0.7l0,0.2l0-0.2l0,0.3l0,0.1L223.1,387z
					 M226.6,356.1c-0.4,0.2-0.7,0.5-0.9,0.9c-0.2,0.3-0.2,0.7-0.3,0.9l0,0.3h-2.4l0-0.4c0.2-1.5,1.4-1.9,2-2v0c-1.6-0.2-2-1.5-2-2.4
					c0-2.2-2-2.4-2.2-2.4l-0.1,0l-2.4-2.4v-4.7l0.3,0c0.8-0.1,1.4-0.5,1.8-1.2c0.2-0.3,0.2-0.7,0.3-0.9l0-0.3l0.3,0
					c1.6,0.2,2,1.6,2,2.4v7.1l2.4,2.4l0,0.1c0,0.9,0.4,1.5,1.1,1.9l0.5,0.3L226.6,356.1z M246.8,358.1l0.4,0.1c0.6,0.1,2,0.5,2,2.3
					c0,1.8-1.4,2.2-2,2.3l-0.4,0.1V358.1z M237.7,400.9l-0.2,0L237.7,400.9l-0.2,0l-0.4,0l0,0L237.7,400.9L237.7,400.9L237.7,400.9z
					 M254.8,386.8c-0.3,0.1-0.6,0.2-0.9,0.3v4.7l-0.2,0.1c-0.9,0.5-1.5,1.3-1.9,2.4l-0.3,0.9l-0.3-0.9c-0.5-1.4-1.3-2.3-2.5-2.8
					l-0.8-0.3l0.8-0.3c0.2-0.1,0.3-0.1,0.5-0.2v-4.2c0-0.9,0.5-2.4,2.4-2.4v-2.4h2.4v2.4c0,0.5,0.2,1.4,1,2l0.6,0.4L254.8,386.8z
					 M256.3,381.9h-4.8l0-0.4c0.1-1,0.7-4.2,4.4-4.4l0.4,0V381.9z M258.8,377.8L258.8,377.8l-0.1,1.7h-2.4v-2.4l2.4,0
					c0-2.3-2.3-2.4-2.4-2.4h-2.4c-0.9,0-1.6,0.3-2,1l-0.4,0.7l-0.2-0.7c-0.4-1.5-1.6-3.3-4.5-3.3c0,0-3.4,0.1-4.4,2.8l-0.3,0.8
					l-0.3-0.8c-0.4-1.2-1.3-2-2.6-2.5l-0.9-0.3l0.9-0.3c2.4-0.8,2.8-3.2,2.9-4.2l0-0.3l4.7,0c0-0.9,0.5-2.4,2.4-2.4
					c1.6,0,2.2,1.2,2.3,2h0v-2.1l0.4,0.1c0.6,0.1,2,0.5,2,2.3h2.4l0,0.3c0.1,2.2,1.3,3.3,2.4,3.8c0.8,0.4,1.7,0.5,2.1,0.6l0.3,0v2.4
					c0,2.2,2,2.4,2.3,2.4l4.8,0c0.9,0,2.4,0.5,2.4,2.4c0,0,0.6,0,1.2,0.3c0.7,0.3,1.1,0.9,1.2,1.7l0,0.4h-4.8v2.4
					c0,0.9-0.5,2.4-2.4,2.4l0,2.4l-0.4-0.1c-0.6-0.1-2-0.5-2-2.3h-2.4v-4.7C261.1,379.5,259.8,378.3,258.8,377.8z M284.8,382.2
					c-0.1,1-0.7,4.4-4.7,4.4h-4.7l0,0.4c-0.1,1-0.8,1.7-1.9,1.9l-0.2,0h2.2l-2.4,2.4h-2.4v4.7h-4.7c-4,0-4.6-3.4-4.7-4.4l0-0.4
					l7.1,0c0-0.9,0.5-2.4,2.4-2.4h2.3l0.1-0.4c0.1-1,0.8-1.7,1.9-1.9l0.4-0.1l0-0.3c0.2-4.3,4.6-4.4,4.7-4.4h4.8L284.8,382.2z
					 M303.8,372.1l0,0.2L303.8,372.1l0,0.3l0,0.1l0,0.2l0,0L303.8,372.1z M303.8,355.8l-0.4-0.1c-0.5-0.1-1.8-0.4-2-2l0-0.4h2.4
					V355.8z"/>
				<path class="st5" d="M332.2,372.4h14.2v-4.7c0-0.2-0.1-4.7-4.7-4.7h-4.8l0-0.4c0.1-1,0.7-4.4,4.7-4.4c0-0.2-0.1-4.5-4.4-4.7
					l-0.3,0v4.7l-0.3,0c-1.3,0.1-4.4,0.9-4.4,4.7c0,0,0,1.2-0.6,2.4c-0.7,1.5-2,2.3-3.8,2.4l0,0
					C328.9,367.8,332.2,368.4,332.2,372.4z"/>
				<polyline class="st5" points="166.2,377.2 166.1,377.5 166.2,377.2 				"/>
			</g>
			<g id="Europe_2_">
				<path class="st6" d="M453.2,273.4c-1.2-0.6-2.3-0.6-2.4-0.6h-9.5c0,4.3-3.8,4.7-4.6,4.7l-0.2,0l0-0.2c-0.1-0.8-0.5-4.6-4.7-4.6
					c-2.5,0-3.6,1.3-4.2,2.4c-0.6,1.2-0.6,2.3-0.6,2.4c4.7,0,4.7,4.6,4.7,4.7v4.7h4.7l0,0.2c0.1,2.3,1.3,3.5,2.4,4
					c1.2,0.6,2.3,0.6,2.4,0.6h4.7c9.4,0,9.5-9.4,9.5-9.5v-4.7C455.6,275.1,454.3,273.9,453.2,273.4z"/>
				<path class="st6" d="M479.3,348.7v-9.5c-0.2,0-4.6-0.1-4.7-4.6h0v4.6l-0.2,0c-4.5,0.1-4.6,4.7-4.6,4.7v9.5h4.7
					C479.2,353.4,479.3,348.7,479.3,348.7z"/>
				<path class="st6" d="M479.3,329.7c0,0,0.1,4.6,4.6,4.7l0.2,0v4.7c0.2,0,4.6,0.1,4.7,4.6l0,0.2l-0.2,0c-0.8,0.1-4.6,0.5-4.6,4.7
					v4.7h4l-0.9,0.3c-1.4,0.5-3,1.6-3,4.4h9.5c0,0,4.7-0.1,4.7-4.7c0-0.2,0.1-4.6,4.6-4.7v0h-4.6l0-4.7c0,0-0.1-4.6-4.6-4.7l-0.2,0
					l0-0.2c-0.1-0.7-0.5-4.5-4.6-4.6l-0.2,0v-4.7c0-0.2,0.1-4.6,4.6-4.7v0H484l0-0.2c0-0.4,0.1-1.3,0.6-2.2c0.8-1.5,2.1-2.3,4-2.4v0
					H484c0,0-4.7,0.1-4.7,4.7V329.7z"/>
				<path class="st6" d="M479.3,320.2h-2.4v2.4C477,322.6,479.3,322.5,479.3,320.2z"/>
				<path class="st6" d="M479.3,334.4c0-1.2-0.6-1.8-1.2-2.1c-0.6-0.3-1.2-0.3-1.2-0.3C476.9,334.4,479.2,334.4,479.3,334.4z"/>
				<path class="st6" d="M484,341.6l-2.2,0c0.5,0,2.1,0.3,2.2,2.2h0V341.6z"/>
				<polygon class="st6" points="505.4,403.2 505.4,400.9 503,400.9 				"/>
				<path class="st6" d="M531.3,154.2l0.2,0v4.7c2.5,0,3.6-1.3,4.2-2.4c0.5-0.9,0.6-1.9,0.6-2.2l0-0.2h4.7v4.7l-0.2,0
					c-4.5,0.1-4.6,4.7-4.6,4.7h4.7l0,0.2c-0.1,4.5-4.6,4.6-4.7,4.6h0c0,9.4,9.4,9.5,9.5,9.5v-14.2l0.2,0c4.5-0.1,4.6-4.7,4.6-4.7
					v-4.7c0-4.2,3.7-4.7,4.6-4.7v0c-0.9,0-4.6-0.5-4.6-4.7c0-4.2-3.8-4.7-4.6-4.7l-0.2,0v-4.7c-4.2,0-4.7-3.7-4.7-4.6h0v9.3l-0.2,0
					c-4.1-0.1-4.5-3.7-4.6-4.6h0v4.6l-0.2,0c-4.5-0.1-4.6-4.6-4.6-4.7v0c-4.7,0-4.7,4.7-4.7,4.7v9.5
					C526.7,153.6,530.6,154.1,531.3,154.2z"/>
				<path class="st6" d="M564.7,163.7c-0.2,0-4.7-0.1-4.7-4.7h-4l0.9-0.3c1.4-0.5,3-1.6,3-4.4c0,0-4.6,0.1-4.7,4.6l0,0.3v9.3h4.7
					C560,168.4,564.7,168.3,564.7,163.7z"/>
				<path class="st6" d="M588.4,125.7c0,0-1.2,0-2.4,0.6c-1.1,0.5-2.4,1.7-2.4,4.2c0,0,1.2,0,2.4-0.6
					C587.1,129.3,588.4,128.2,588.4,125.7z"/>
				<path class="st6" d="M550.4,135.2c0,0,0.1,4.7,4.7,4.7c4.7,0,4.7,4.6,4.7,4.7v0h4.7c0,0,4.7-0.1,4.7-4.7v-4.7l0.2,0
					c0.8-0.1,4.6-0.5,4.6-4.7h-4.7l0-0.2c-0.1-0.8-0.5-4.6-4.7-4.6v0c0,0.2-0.1,4.6-4.6,4.7l-0.2,0v-4.7c0,0-3.9,0.1-4.6,3.5
					l-0.1,0.7l-0.2-0.7c-0.4-1.6-1.5-3.5-4.6-3.5c0,0-4.7,0.1-4.7,4.7h0C545.9,130.4,550.4,130.5,550.4,135.2z"/>
				<path class="st6" d="M512.5,320.2h4.7c4.2,0,4.7-3.8,4.7-4.6l0-0.2h4.7v9.5c4.7,0,4.7,4.6,4.7,4.7c0,0.2-0.1,4.7-4.7,4.7v4.7
					c0.1,0,4.6-0.1,4.7-4.6l0-0.2l4.7,0c0-4.7,4.6-4.7,4.7-4.7h0v-9.5l0.2,0c4.1-0.1,4.5-3.8,4.6-4.6l0-0.1l0.1,0
					c0.8-0.1,4.6-0.5,4.6-4.7c0-4.2-3.8-4.7-4.6-4.7l-0.2,0l0-9.5c0-9.4,9.1-9.5,9.5-9.5v-4.7c0-8.7,7.8-9.4,9.3-9.5l0.2,0v9.5
					c0,0.1-0.1,9.5-9.5,9.5V306c0,0,0.1,4.7,4.7,4.7h4.7c0,0,4.6-0.1,4.7-4.6l0-0.2h9.5v-4.7l0.2,0c0.8-0.1,4.6-0.5,4.6-4.7V287
					c0,0,0-1.2-0.6-2.4c-0.5-1.1-1.6-2.3-4-2.4l-0.2,0v-23.7c-0.2,0-4.6-0.1-4.7-4.6l0-0.2l0.2,0c0.4,0,1.3-0.1,2.2-0.6
					c1.1-0.5,2.3-1.6,2.4-4l0-0.2l0.2,0c4.5-0.1,4.6-4.7,4.6-4.7H580l0.9-0.3c2.8-1.1,2.8-4.4,2.8-4.4h-4.7l0-0.2
					c-0.1-2.3-1.3-3.5-2.4-4c-1.2-0.6-2.3-0.6-2.4-0.6c-3,0-4.1,1.9-4.5,3.5l-0.2,0.7l-0.1-0.7c-0.8-3.4-4.6-3.5-4.6-3.5v4.7l-0.2,0
					c-3.2,0.1-4.2,2.4-4.5,3.8l-0.1,0.6l-0.2-0.5c0-0.1-0.1-0.2-0.1-0.2c-0.3-0.5-0.9-1.2-2.1-1.2c0,0,0,0.6,0.3,1.2
					c0.1,0.3,0.4,0.6,0.8,0.9l0.5,0.3h-4l0-0.2c-0.1-0.7-0.4-2.2-2.4-2.2c0,0,0,1.4,1.1,2.1l0.5,0.3h-1.6l0-0.2
					c-0.1-0.7-0.4-2.2-2.4-2.2c0,0,0,1.4,1.1,2.1l0.5,0.3h-1.6c-4.7,0-4.7,4.7-4.7,4.7v1.8l-0.3-0.6c-0.4-0.8-1.1-1.2-2.1-1.2
					c0,0.1,0,2.3,2.2,2.4l0.2,0v2.4l-0.1,0c-1.6,0.8-3.1,1.7-4.3,2.6v0.1h-0.1c-0.9,0.6-1.7,1.3-2.3,2l-0.3,0.3
					c-2.3,2.5-2.4,4.4-2.4,4.5v4.7l-0.2,0c-4.5,0.1-4.6,4.7-4.6,4.7l0,4.7c0,4.7-4.6,4.7-4.7,4.7h0c0,9.4-9.1,9.5-9.5,9.5h0v4.7
					l-0.2,0c-9.2,0.1-9.3,9.4-9.3,9.5l4.7,4.7V320.2z M576.5,303.6l-2.4-2.4h2.4V303.6z M578.6,293l0.3-0.6v4.1c0,2-1.7,2.3-2.2,2.4
					l-0.2,0v-4.7l0.2,0C577.8,294.1,578.3,293.5,578.6,293z M574.4,289.4c0.5,0,2.1,0.3,2.2,2.2l0,0.2l-0.2,0
					c-0.5,0-2.1-0.3-2.2-2.2l0-0.2L574.4,289.4z M567.1,301c0.1-1.8,1.7-2.1,2.2-2.2l0.2,0l0,0.2c-0.1,1.8-1.7,2.1-2.2,2.2l-0.2,0
					L567.1,301z M531.5,315.5l0.2,0c0.9,0,1.5-0.4,1.9-1.2l0.3-0.6v4.1c0,2-1.7,2.3-2.2,2.4l-0.2,0V315.5z"/>
				<path class="st6" d="M538.6,258.5l0-0.2c0-0.5,0.4-2.2,2.4-2.2c0-0.1,0-2.3,2.2-2.4v0l-2.2,0l0-4.7c-0.1,0-2.4,0-2.4,2.4v2.4
					l-0.2,0c-0.7,0.1-2.2,0.4-2.2,2.4h2.4l-2.4,2.4H538.6z"/>
				<polygon class="st6" points="559.9,239.6 559.9,237.2 557.6,239.6 				"/>
				<path class="st6" d="M533.8,258.5c-0.1,0-2.4,0-2.4,2.4C531.6,260.9,533.8,260.9,533.8,258.5z"/>
				<path class="st6" d="M522,287c-1.2,0-1.8,0.6-2.1,1.2c-0.3,0.6-0.3,1.2-0.3,1.2C521.9,289.4,522,287.1,522,287z"/>
				<path class="st6" d="M493.5,310.7v-2.4h-2.4C491.1,308.4,491.2,310.7,493.5,310.7z"/>
				<path class="st6" d="M488.8,317.8c0-0.1,0-2.4-2.4-2.4C486.4,315.6,486.4,317.8,488.8,317.8z"/>
				<path class="st6" d="M545.7,325c4.7,0,4.7-4.7,4.7-4.7C545.8,320.2,545.7,324.9,545.7,325z"/>
				<path class="st6" d="M552.8,310.7c0-0.1,0-2.4-2.4-2.4C550.5,308.4,550.5,310.7,552.8,310.7z"/>
				<path class="st6" d="M522,391.4c0,0,0-0.6-0.3-1.2c-0.3-0.5-0.9-1.2-2.1-1.2v4.7h2.4V391.4z"/>
				<path class="st6" d="M522.1,398.5l-0.1,0l0-0.1c0-0.2-0.1-0.6-0.3-1c-0.3-0.5-0.9-1.2-2.1-1.2v7.1h2.4c0.1,0,2.4,0,2.4-2.4
					C524.4,400.8,524.3,398.6,522.1,398.5z"/>
				<path class="st6" d="M567.1,415.1h-4.7c0,0.1,0,2.4,2.4,2.4l4.6,0C568.7,417.4,567.1,417.1,567.1,415.1z"/>
				<path class="st6" d="M602.6,358.2c0,0,0,0-4.7,0s-4.7-4.7-4.7-4.7v-9.5h-4.7c0,0-4.7,0-4.7-4.7v-4.7h-4.7c0,0,0-4.7-4.7-4.7
					c0,0,0,0,0,0.1c0,0,0-0.1,0-0.1V325h-4.7c4.7,0,4.7-4.7,4.7-4.7h-2.4v-2.4h2.4v-2.4c-4.7,0-4.7-4.7-4.7-4.7
					c-4.7,0-4.7,4.7-4.7,4.7h-4.7c0,4.7,4.7,4.7,4.7,4.7v4.7h-9.5v4.7v4.7c0,0,0,0,0.1,0c0,0-0.1,0-0.1,0c0,0,0,4.7-4.7,4.7H541
					c-4.7,0-4.7,4.7-4.7,4.7v0c0,0,0-4.7-4.7-4.7c-4.7,0-4.7,4.7-4.7,4.7c0-4.2-3.7-4.7-4.6-4.7v-4.8c0-4.5,4.4-4.6,4.6-4.6l0.2,0
					v-0.2c0-4.9-4.9-4.9-4.9-4.9c-2.5,0-3.7,1.3-4.3,2.5c-0.6,1.2-0.6,2.4-0.6,2.4v4.7c0,4.8,4.8,4.9,4.9,4.9
					c-0.1,4.6-4.7,4.6-4.7,4.6h-4.7v4.7c-4.7,0-4.7,4.7-4.7,4.7c-4.7,0-4.7,4.7-4.7,4.7c-4.7,0-4.7,4.7-4.7,4.7h-4.7
					c0,4.7-4.7,4.7-4.7,4.7v-4.7c-4.7,0-4.7,4.7-4.7,4.7l4.7,4.7c0,4.7,4.7,4.7,4.7,4.7v4.7c0,4.7-4.7,4.7-4.7,4.7h-19
					c0,4.7,4.7,4.7,4.7,4.7s-4.7,0-4.7,4.7v9.5c0,0,0,4.7,4.7,4.7c4.7,0,4.7,4.7,4.7,4.7c4.7,0,4.7-4.7,4.7-4.7h4.7
					c4.7,0,4.7-4.7,4.7-4.7c4.7,0,4.7-4.7,4.7-4.7v-4.7h4.7c0-4.7,4.7-4.7,4.7-4.7h-7.1l0,0h7.1c0-4.7,4.7-4.7,4.7-4.7h4.7v0
					l4.7-4.7c0,0,0,4.7,4.7,4.7v4.7c0,0,4.7,0,4.7,4.7h4.7c0,0,0,4.7,4.7,4.7v4.6h-9.7v0.2c0,0,0.1,4.9,4.9,4.9h0.1l4.9-4.9h4.5
					v-4.7c0,0,0-4.7-4.7-4.7c0,0,0-4.7-4.7-4.7c0,0,0-4.7-4.7-4.7v-4.7c0,0,0-4.7,4.7-4.7h-4.7v0h4.7v0v4.7c4.7,0,4.7,4.7,4.7,4.7
					h4.7v4.7c0,0,0,0,0-0.1c0,0,0,0.1,0,0.1h4.7v9.5c0,0,4.7,0,4.7,4.7v4.7c0,0,4.7,0,4.7,4.7v-4.7c0,0,4.7,0,4.7-4.7
					c0,0-4.7,0-4.7-4.7c0,0,4.7,0,4.7-4.7h4.7c0,0,0,0-0.1,0c0,0,0.1,0,0.1,0c0,0,0-4.7,4.7-4.7v-4.7c0,0,0-4.7,4.7-4.7v-4.7
					c4.7,0,4.7-4.7,4.7-4.7c0,4.7,4.7,4.7,4.7,4.7c0,4.7,4.7,4.7,4.7,4.7h4.7l-4.7-4.7c4.7,0,4.7-4.7,4.7-4.7h4.7
					c0-4.7,4.7-4.7,4.7-4.7s0,0,0-4.7C607.4,358.2,602.6,358.2,602.6,358.2z M586,362.9c2.4,0,2.4,2.4,2.4,2.4
					C586,365.3,586,362.9,586,362.9z"/>
				<polygon class="st6" points="557.6,317.8 557.6,320.2 559.9,320.2 				"/>
			</g>
			<g id="Asia_2_">
				<path class="st7" d="M588.4,419.8c4.7,0,4.7-4.7,4.7-4.7c-2.5,0-3.6,1.3-4.2,2.4C588.4,418.6,588.4,419.8,588.4,419.8z"/>
				<path class="st7" d="M638.2,445.9v2.4l2.4,2.4v-2.4C640.6,448.2,640.5,445.9,638.2,445.9z"/>
				<path class="st7" d="M721.2,495.7v9.5c0.1,0,4.7-0.1,4.7-4.7C726,495.8,721.3,495.7,721.2,495.7z"/>
				<path class="st7" d="M806.6,467.3v-2.4h-4.7v4.7h2.4C804.4,469.7,806.6,469.6,806.6,467.3z"/>
				<path class="st7" d="M837.5,448.9c-1.2-0.6-2.3-0.6-2.4-0.6v9.5c0.1,0,4.7-0.1,4.7-4.7C839.8,450.6,838.6,449.4,837.5,448.9z"/>
				<path class="st7" d="M830.4,488.8L830.4,488.8l0,2.2l-4.7,4.7v2.4l7.1-7.1C830.7,491,830.4,489.3,830.4,488.8z"/>
				<path class="st7" d="M837.5,507.6c0-2.3-2.3-2.4-2.4-2.4C835.1,507.6,837.4,507.6,837.5,507.6z"/>
				<path class="st7" d="M849.5,495.8l-0.2,0v-2.4l-2.4,2.4c0,2.3-2.3,2.4-2.4,2.4h-2.4c-4.2,0-4.7,3.8-4.7,4.6l0,0.3l0,0.2
					c0.2,2,2.3,2,2.3,2c0-1.7-1.3-2.2-2-2.3l-0.3-0.1l2.4-2.4h4.7v2.4c0,2.3,2.3,2.4,2.4,2.4h2.4c0-1.7-1.3-2.2-2-2.3l-0.3-0.1
					l2.4-2.4v2.4c1.2,0,1.8-0.6,2.1-1.2c0.3-0.6,0.3-1.2,0.3-1.2v-2.4C851.7,496.2,850.2,495.8,849.5,495.8z"/>
				<path class="st7" d="M839.8,495.7h2.4v-2.4l0.2,0c0.2,0,0.6-0.1,1-0.3c0.5-0.3,1.2-0.8,1.2-2.1c0,0-0.6,0-1.2,0.3
					c-0.3,0.1-0.6,0.4-0.9,0.8l-0.3,0.5V491c-2.3,0-2.4,2.3-2.4,2.4V495.7z"/>
				<path class="st7" d="M844.6,493.4v2.4c0.1,0,2.4,0,2.4-2.4l0-2.2C846.9,491.7,846.6,493.4,844.6,493.4z"/>
				<path class="st7" d="M832.7,479.1c0,0.1,0,2.3,2.2,2.4l0.1,0l0,0.1c0,0.2,0.1,0.6,0.3,1c0.3,0.5,0.8,1.2,2.1,1.2h2.4l2.4,2.4
					l0,0.1c0,0.2,0.1,0.6,0.3,1.1c0.3,0.5,0.8,1.2,2.1,1.2c0,0,0-0.6-0.3-1.2c-0.1-0.3-0.4-0.6-0.8-0.9l-0.5-0.3h1.6l0,0.2
					c0.1,0.6,0.4,2.1,2.2,2.2l0.1,0l0,0.1c0.1,0.5,0.4,2.2,2.4,2.2v-2.4c0-0.1,0-2.4-2.4-2.4h-2.4l-2.4-2.4h2.4l-2.4-2.4h-4.7v-4.7
					l0.2,0c0.7-0.1,2.2-0.4,2.2-2.4V472c0-0.1,0-2.4-2.4-2.4h-2.4c-0.1,0-2.4,0-2.4,2.4V479.1z"/>
				<path class="st7" d="M832.9,483.9c0.5,0,2.2,0.4,2.2,2.4c0,2.3,2.3,2.4,2.4,2.4v-2.4c0,0,0-0.6-0.3-1.2
					c-0.3-0.5-0.9-1.2-2.1-1.2L832.9,483.9z"/>
				<path class="st7" d="M839.8,488.6c-2.3,0-2.4,2.3-2.4,2.4v2.4c2.3,0,2.4-2.3,2.4-2.4V488.6z"/>
				<path class="st7" d="M790,526.6c0-1.2-0.6-1.8-1.2-2.1c-0.4-0.2-0.8-0.3-1-0.3l-0.2,0v-2.4l-2.4-2.4l0-0.1
					c0-2.3-2.3-2.3-2.4-2.3h-2.4c-2.3,0-2.4-2.3-2.4-2.4v0l-2.4-2.4h-2.4l0-0.2c-0.1-4.5-4.7-4.6-4.7-4.6h-2.4l-2.4-2.4v2.4
					c0,1.2,0.6,1.8,1.2,2.1c0.5,0.2,0.9,0.3,1.1,0.3l0.1,0l2.4,2.4l0,0.1c0,0.4,0.3,2.3,2.4,2.3c2.3,0,2.4,2.3,2.4,2.4v2.4
					c0,2.1,1.9,2.3,2.3,2.4l0.1,0l2.4,2.4v2.4l4.7,4.7l0,0.1c0,1.2,0.7,1.7,1.2,2c0.5,0.2,0.9,0.3,1.1,0.3l0.1,0l4.7,4.7h2.4V529
					H790V526.6z"/>
				<path class="st7" d="M794.8,529c0-0.1,0-2.4-2.4-2.4C792.4,526.7,792.4,529,794.8,529z"/>
				<path class="st7" d="M799.5,529c-0.1,0-2.4,0-2.4,2.4C797.3,531.3,799.5,531.3,799.5,529z"/>
				<path class="st7" d="M768.7,517.1c0,2.3,2.3,2.4,2.4,2.4C771.1,517.1,768.8,517.1,768.7,517.1z"/>
				<path class="st7" d="M774.6,524.5c-0.6-0.3-1.2-0.3-1.2-0.3c0,1.2,0.6,1.8,1.2,2.1c0.6,0.3,1.2,0.3,1.2,0.3
					C775.8,525.4,775.2,524.8,774.6,524.5z"/>
				<path class="st7" d="M775.8,529c0,2.3,2.3,2.4,2.4,2.4C778.2,529,775.9,529,775.8,529z"/>
				<path class="st7" d="M813.8,543c0.1-1.8,1.7-2.1,2.2-2.2l0,0H809c-2,0-2.3-1.7-2.4-2.2l0,0c-0.1,2.2-2.3,2.2-2.4,2.2h-2.4l0-0.2
					c-0.1-1.1-0.7-1.7-1.2-1.9c-0.6-0.3-1.2-0.3-1.2-0.3h-4.7c-2.3,0-2.4,2.3-2.4,2.4h2.4l0,0.2c0.1,2.2,2.3,2.2,2.4,2.2h9.5l0,0.2
					c0.1,2.2,2.3,2.2,2.4,2.2h7.1v-2.4h-2.4L813.8,543z"/>
				<path class="st7" d="M818.5,545.6c2.3,0,2.4-2.3,2.4-2.4C818.5,543.2,818.5,545.5,818.5,545.6z"/>
				<path class="st7" d="M820.9,545.6c0,0.1,0,2.4,2.4,2.4C823.2,547.8,823.2,545.6,820.9,545.6z"/>
				<path class="st7" d="M825.6,547.9c0.1,0,2.4,0,2.4-2.4h-4.7C823.2,545.7,823.3,547.9,825.6,547.9z"/>
				<path class="st7" d="M818.4,507.6c-1.2,0-1.7,0.7-2,1.2c-0.2,0.5-0.3,0.9-0.3,1.1l0,0.1l-4.7,4.7H809c0,0.1,0,2.4-2.4,2.4h-2.4
					c-0.1,0-2.4,0-2.4,2.4v2.4c0,0,0,0.6,0.3,1.2c0.3,0.5,0.8,1.1,1.9,1.2l0.2,0v2.4c0,0.1,0,2.4,2.4,2.4h2.4l0,0.2
					c0,0.2,0.1,0.6,0.3,1c0.3,0.5,0.8,1.2,2.1,1.2h4.7l2.4,2.4c0.1,0,2.3,0,2.4-2.2l0-0.1l0.1,0c0.5-0.1,2.2-0.4,2.2-2.4v-2.4l0.2,0
					c0.7-0.1,2.2-0.4,2.2-2.4v-2.4c0,0,0-0.6,0.3-1.2c0.4-0.8,1.1-1.2,2.1-1.2h2.4l-2.4-2.4l0-0.1c0-0.2-0.1-0.6-0.3-1.1
					c-0.3-0.5-0.8-1.1-1.9-1.2l-0.2,0v-2.4c0,0,0-0.6,0.3-1.2c0.4-0.8,1.1-1.2,2.1-1.2c0-0.1,0-2.3,2.2-2.4l0,0
					c-0.5,0-2.2-0.4-2.2-2.4h-2.4v-2.4h-2.4L818.4,507.6L818.4,507.6z"/>
				<path class="st7" d="M799.5,510c0,2.3,2.3,2.4,2.4,2.4C801.9,510,799.6,510,799.5,510z"/>
				<path class="st7" d="M830.4,547.9c0,0.1,0,2.4,2.4,2.4h2.4c0-0.1,0-2.4-2.4-2.4H830.4z"/>
				<path class="st7" d="M837.5,547.9c0.1,0,2.4,0,2.4-2.4h-7.1c0,0.1,0,2.4,2.4,2.4H837.5z"/>
				<path class="st7" d="M842.2,545.6c1.2,0,1.8-0.6,2.1-1.2c0.3-0.6,0.3-1.2,0.3-1.2c-1.2,0-1.8,0.6-2.1,1.2
					C842.2,545,842.2,545.5,842.2,545.6z"/>
				<path class="st7" d="M853.9,545.6L853.9,545.6l-6.9,0c0,2.3-2.3,2.4-2.4,2.4h-2.4l2.4,2.4c1.9,0,2.3-1.6,2.4-2.2l0-0.2h4.7
					C851.7,545.9,853.4,545.6,853.9,545.6z"/>
				<path class="st7" d="M839.8,552.7c0.1,0,2.4,0,2.4-2.4C842.1,550.3,839.8,550.3,839.8,552.7z"/>
				<polygon class="st7" points="844.6,526.6 844.6,529 847,526.6 				"/>
				<path class="st7" d="M850.5,533.4c0.6,0.3,1.2,0.3,1.2,0.3v-2.4h-2.4C849.3,532.5,850,533.1,850.5,533.4z"/>
				<path class="st7" d="M834.9,529l0.2,0v2.4c0,1.2,0.6,1.8,1.2,2.1c0.6,0.3,1.2,0.3,1.2,0.3h2.4v-2.4c0-1.9-1.6-2.3-2.2-2.4
					l-0.2,0v-2.4h2.4c0-2,1.7-2.3,2.2-2.4v0h-4.6c-1.2,0-1.8,0.6-2.1,1.1l-0.3,0.6v-4.1h9.5c2.3,0,2.4-2.3,2.4-2.4
					c0-2.3-2.3-2.4-2.4-2.4c0,2.3-2.3,2.4-2.4,2.4h-7.1c-2.3,0-2.4,2.3-2.4,2.4v2.4l-0.2,0c-2.2,0.1-2.2,2.3-2.2,2.4v9.5
					c0,2.3,2.3,2.4,2.4,2.4v-7.1C832.7,529.3,834.4,529,834.9,529z"/>
				<path class="st7" d="M839.8,538.4c0.1,0,2.4,0,2.4-2.4v-2.4c-0.1,0-2.4,0-2.4,2.4V538.4z"/>
				<path class="st7" d="M854.1,517.1c0,0,0.6,0,1.2-0.3c0.5-0.3,1.2-0.8,1.2-2.1c0,0-0.6,0-1.2,0.3
					C854.7,515.3,854.1,515.9,854.1,517.1z"/>
				<path class="st7" d="M854.1,519l-0.2-0.5c-0.2-0.7-0.8-1.5-2.2-1.5c0,0.1,0,2.3,2.2,2.4l0.2,0v2.4c0,0.1,0,2.4,2.4,2.4v-7.1
					c0,0-1.7,0-2.2,1.5L854.1,519z"/>
				<path class="st7" d="M861.2,531.3c0,0,0.6,0,1.2,0.3c0.7,0.4,1.1,1,1.2,1.9h0v-2.2c0,0-0.6,0-1.2-0.3c-0.8-0.4-1.2-1.1-1.2-2.1
					h-4.7c-0.1,0-2.4,0-2.4,2.4H861.2z"/>
				<polygon class="st7" points="858.8,526.6 861.2,529 861.2,526.6 				"/>
				<path class="st7" d="M865.9,540.8c-1.2,0-1.8,0.6-2.1,1.2c-0.3,0.6-0.3,1.2-0.3,1.2c1.2,0,1.8-0.6,2.1-1.2
					C865.9,541.4,865.9,540.8,865.9,540.8z"/>
				<path class="st7" d="M873.1,536.1v4.7c0.1,0,2.4,0,2.4-2.4C875.4,536.1,873.2,536.1,873.1,536.1z"/>
				<path class="st7" d="M887.3,528.8c-0.1-2.2-2.3-2.2-2.4-2.2h-4.7c0,2.3-2.3,2.4-2.4,2.4l0,0c0,0.1,0,2.4-2.4,2.4
					c-2.3,0-2.4-2.3-2.4-2.4v-4.7h-2.4c-2.3,0-2.4-2.3-2.4-2.4v0c-1.9,0-2.3,1.6-2.4,2.2l0,0.1l-0.1,0c-1.1,0-1.7,0.7-1.9,1.2
					c-0.3,0.6-0.3,1.2-0.3,1.2h7.1v2.4l-4.6,0c2.2,0.1,2.2,2.3,2.2,2.4v2.4c1.9,0,2.3-1.6,2.4-2.2l0-0.2h2.4l0,0.2
					c0.1,0.7,0.4,2.2,2.4,2.2c2.3,0,2.4,2.3,2.4,2.4v0h4.7l0,0.2c0.1,1.8,1.6,2.1,2.2,2.2l0.2,0v4.7l-0.2,0
					c-2.2,0.1-2.2,2.3-2.2,2.4h2.4c1.9,0,2.3-1.6,2.4-2.2l0-0.2l0.2,0c2.2,0.1,2.2,2.3,2.2,2.4c0,1.2,0.6,1.8,1.2,2.1
					c0.6,0.3,1.2,0.3,1.2,0.3v-19h-4.7L887.3,528.8z"/>
				<path class="st7" d="M877.8,524.2c0-2.3-2.3-2.4-2.4-2.4C875.4,524.2,877.7,524.2,877.8,524.2z"/>
				<path class="st7" d="M896.8,343.9v33.2c0.1,0,4.7-0.1,4.7-4.7v-23.7c0,0,0-1.2-0.6-2.4C900.4,345.2,899.2,343.9,896.8,343.9z"/>
				<path class="st7" d="M896.8,400.9c-0.2,0-4.7-0.1-4.7-4.7l0,0c0,0.5-0.3,4.7-4.7,4.7v4.7c0,0.2-0.1,4.7-4.7,4.7
					c-4.2,0-4.7,3.8-4.7,4.6l0,0.2l-9.5,0c0,0.2-0.1,4.7-4.7,4.7l-4.7,4.7l4.7,4.7l4.7-4.7v-4.7h4.7c0.2,0,4.6,0.1,4.7,4.6h0v-4.6
					l9.5,0l4.7-4.7v-9.5l0.2,0C893,405.5,896.8,405.1,896.8,400.9z"/>
				<path class="st7" d="M906.3,384.3c-1.2,0-1.8,0.6-2.1,1.2c-0.2,0.4-0.3,0.8-0.3,1l0,0.2h-2.4l-4.7-4.7c0,0-4.6,0.1-4.7,4.6
					l0,0.2l-0.2,0c-0.8,0.1-4.6,0.5-4.6,4.7l4.7,4.7v-4.7h9.5c0-0.2,0.1-4.6,4.6-4.7v0h-2.2L906.3,384.3z"/>
				<polygon class="st7" points="908.6,384.3 913.4,379.5 911,379.5 908.6,381.9 				"/>
				<path class="st7" d="M918.1,377.1c-1.2,0-1.8,0.6-2.1,1.2c-0.3,0.6-0.3,1.2-0.3,1.2c1.2,0,1.8-0.6,2.1-1.2
					C918.1,377.7,918.1,377.2,918.1,377.1z"/>
				<path class="st7" d="M922.9,372.4c-2.3,0-2.4,2.3-2.4,2.4L922.9,372.4z"/>
				<path class="st7" d="M960.8,336.8c0,0.1,0,2.4,2.4,2.4C963.2,339.1,963.1,336.8,960.8,336.8z"/>
				<path class="st7" d="M956.1,317.8c-1.2,0-1.8,0.6-2.1,1.2c-0.3,0.6-0.3,1.2-0.3,1.2c1.2,0,1.8-0.6,2.1-1.2
					C956.1,318.4,956.1,317.9,956.1,317.8z"/>
				<path class="st7" d="M659.6,241.9v2.4h2.4l0,0.2c0.1,2.2,2.3,2.2,2.4,2.2h2.4l-4.7-4.7H659.6z"/>
				<path class="st7" d="M1024.9,268h-4.7l-4.7,4.7v-9.5h-4.7l0-0.2c-0.1-1.6-0.9-9.3-9.4-9.3l-0.1,0l-4.7-4.7
					c-0.2,0-4.7-0.1-4.7-4.7h-14.2c0,0-3.9,0.1-4.6,3.5l-0.2,0.7l-0.2-0.7c-0.4-1.6-1.5-3.5-4.6-3.5c0,0,0,1.2,0.6,2.4
					c0.5,1,1.6,2.3,4,2.4l0.2,0c0.2,0,4.6,0.1,4.7,4.6l0,0.2h-4.7l-4.7-4.7h-19l-4.7-4.7v-4.7c0,0,0-1.2-0.6-2.4
					c-0.5-1.1-1.7-2.4-4.2-2.4l-9.5,0c0,0.2-0.1,4.7-4.7,4.7l-0.1,0l-4.7-4.7l0-0.1c0-0.8-0.4-4.6-4.6-4.7l-0.2,0v-4.7h-9.5l0-0.2
					c-0.1-0.8-0.5-4.6-4.7-4.6H892c0,0-4.7,0.1-4.7,4.7v4.7l-0.2,0c-0.7,0-4.4,0.5-4.6,4.4l0,0.4l-4.7-4.7c0,0-4.5,0.1-4.7,4.4
					l0,0.4l-4.7-4.7l-4.7,4.7v4.7l-4.7-4.7v-19c0,0-0.1-4.7-4.7-4.7h-9.5c0,0-4.7,0.1-4.7,4.7l0,0.1l-4.7,4.7l-4.7-4.7l0-0.1
					c0-0.3-0.1-1.3-0.6-2.3c-0.5-1.1-1.7-2.4-4.2-2.4h-9.5l-4.7,4.7v-4.7h-4.7l-4.7,4.7h-4.7c0,0-3.4,0-4.4,2.8l-0.3,0.9v-3.7
					l4.7-4.7l0.1,0c0.3,0,1.3-0.1,2.3-0.6c1.1-0.5,2.3-1.7,2.4-4.1l0-0.1l9.5-9.5l0.1,0c0.8,0,4.7-0.4,4.7-4.7v-4.7l-9.5-9.5h-4.7
					l-4.7,4.7h-4.7l4.7-4.7c0-0.1-0.1-4.6-4.6-4.7l-0.2,0v-4.7l-4.7-4.7l-9.5,9.5v4.7c0,0,0,1.2-0.6,2.4c-0.8,1.6-2.2,2.4-4.2,2.4
					c0,0-4.6,0.1-4.7,4.6l0,0.2h-4.7v-4.7c-0.1,0-2.4,0-4.7,1.2c-2.1,1.1-4.7,3.3-4.7,8.1l0,0.2h-4.7c-0.1,0-9.5,0.1-9.5,9.5v9.5
					H726c0,0-4.7,0.1-4.7,4.7v4.7c0,0,0.1,4.7,4.7,4.7c0,0,1.2,0,2.4,0.6c1.6,0.8,2.4,2.2,2.4,4.2v14.2l-0.2,0
					c-0.8,0-4.6-0.5-4.6-4.7v-9.5l-4.7-4.7h-4.7V223l-2.4-2.4c-1.2,0-1.8,0.6-2.1,1.2c-0.3,0.6-0.3,1.2-0.3,1.2v2.4l2.4,2.4
					l-2.4,2.4l0-0.3c-0.1-1-0.7-1.5-1.2-1.7c-0.6-0.3-1.2-0.3-1.2-0.3v2.4c0,2.3,2.3,2.4,2.4,2.4h2.4l2.4,2.4v2.4l-2.4-2.4h-4.7
					c-2.3,0-2.4-2.3-2.4-2.4v-7.1l2.4-2.4l-2.4-2.4h-2.4l2.4,2.4l-2.4,2.4c0,2.3-2.3,2.4-2.4,2.4h0v2.4h-2.4l2.4,2.4l0,4.7
					c0.1,0,2.4,0,2.4,2.4c0,2.3-2.3,2.4-2.4,2.4v7.1c0,2.3,2.3,2.4,2.4,2.4h7.1l2.4,2.4v2.4l2.4,2.4h-2.4v2.4c0,1,0.4,1.7,1.2,2.1
					l0.6,0.3h-1.8c-2.3,0-2.4-2.3-2.4-2.4l0-7.1H707c-1.2,0-1.8,0.6-2.1,1.2c-0.3,0.6-0.3,1.2-0.3,1.2v7.1l-2.4,2.4v2.4l-2.4,2.4
					l-0.1,0c-1.2,0-1.7,0.7-2,1.2c-0.2,0.4-0.3,0.8-0.3,1l0,0.2h-4.7V268h4.7v-2.4l0.2,0c2.2-0.1,2.2-2.3,2.2-2.4v-4.7l2.4-2.4
					c0-1.9-1.6-2.3-2.2-2.4l-0.2,0v-19c0-1.9-1.6-2.3-2.2-2.4l-0.2,0v-2.4c0-2.3,2.3-2.4,2.4-2.4h0v-7.1c-2.3,0-2.4-2.3-2.4-2.4v0
					h-4.7c-4.7,0-4.7,4.7-4.7,4.7v7.1l-0.2,0c-2.3,0.1-3.5,1.3-4,2.4c-0.6,1.2-0.6,2.3-0.6,2.4v2.4c2.3,0,2.4,2.3,2.4,2.4v2.4
					c0,2.3-2.3,2.4-2.4,2.4h0v2.4h2.4l0,0.2c0.1,1.1,0.7,1.7,1.2,1.9c0.4,0.2,0.8,0.3,1,0.3l0.2,0v2.4c0,1.2,0.6,1.8,1.2,2.1
					c0.4,0.2,0.8,0.3,1,0.3l0.2,0l0,0.2c-0.1,2.2-2.3,2.2-2.4,2.2h0v2.4l-9.5-9.5h-2.4l-2.4-2.4h-7.1v7.1l-0.2,0
					c-0.2,0-0.6,0.1-1,0.3c-0.5,0.3-1.2,0.9-1.2,2.1c0,2-1.7,2.3-2.2,2.4l-0.2,0v-4.8h-2.4c-0.1,0-2.3,0-2.4,2.2l0,0.2h-4.7
					c-0.1,0-2.3,0-2.4,2.2l0,0.2l-0.2,0c-0.5,0-2.2-0.4-2.2-2.4v-2.4h-2.4c-0.1,0-2.3,0-2.4,2.2l0,0.2h-2.4c0,0-4.6,0.1-4.7,4.6
					l0,0.2h-2.4c0,0,0,0.6-0.3,1.2c-0.4,0.8-1.1,1.2-2.1,1.2v4.7h-4.7c0,0-0.6,0-1.2-0.3c-0.8-0.4-1.2-1.1-1.2-2.1
					c0-1.7-1.3-2.2-2-2.3l-0.3-0.1l2.4-2.4h2.4v-2.4c0,0,0-0.6-0.3-1.2c-0.3-0.5-0.8-1.2-2.1-1.2h-4.7v9.5l2.4,2.4v4.7h-9.5
					l-4.7,4.7c0,2.8,1.7,3.9,3,4.4l0.9,0.3h-13.5l0-0.2c0-0.2-0.1-0.6-0.3-1c-0.3-0.5-0.9-1.2-2.1-1.2c0,0,0,0.6,0.3,1.2
					c0.3,0.5,0.8,1.2,2,1.2l0.1,0l4.7,4.7h-4.7c-4.7,0-4.7-4.5-4.7-4.7v-9.5h-4.7V268h4.7l0,0.2c0.1,4.5,4.7,4.6,4.7,4.6h9.5
					c4.7,0,4.7-4.7,4.7-4.7v-4.7c0-2.5-1.3-3.6-2.4-4.2c-1.2-0.6-2.3-0.6-2.4-0.6h-4.7l0-0.2c-0.1-9.2-9.4-9.3-9.5-9.3h-4.7l0-0.2
					c-0.1-4.5-4.7-4.6-4.7-4.6c0,4.7-4.6,4.7-4.7,4.7h0c0,4.7-4.5,4.7-4.7,4.7h0c0,4.2,3.8,4.7,4.6,4.7l0.2,0l0,23.7
					c4.7,0,4.7,4.6,4.7,4.7v9.5c0,4.2-3.7,4.7-4.6,4.7v0l4.6,0l4.7,4.7v4.7h-4.7l0-0.2c-0.1-4.5-4.7-4.6-4.7-4.6h-4.7
					c0,3,1.9,4.1,3.5,4.6l0.7,0.2l-0.7,0.2c-1.6,0.4-2.5,1.4-2.9,2.2c-0.6,1.2-0.6,2.3-0.6,2.4v4.7c0,4.2-3.7,4.7-4.6,4.7v0h4.6v4.7
					c4.7,0,4.7,4.6,4.7,4.7v0h4.7v4.7c0,2.5,1.3,3.6,2.4,4.2c1.2,0.6,2.3,0.6,2.4,0.6h4.7v9.5c0,2.5,1.3,3.6,2.4,4.2
					c1.2,0.6,2.3,0.6,2.4,0.6h4.7c0.2,0,4.7,0.1,4.7,4.7v4.7l-0.2,0c-0.4,0-1.3,0.1-2.2,0.6c-1.1,0.5-2.4,1.7-2.4,4.2h4l-0.9,0.3
					c-1.3,0.5-3,1.6-3,4.3l0,0.2h-4.7c0,0,0.1,4.7,4.7,4.7l0.1,0l4.7,4.7l0,0.1c0,0.8,0.4,4.6,4.6,4.7l0.2,0l0,0.2
					c-0.1,4.5-4.6,4.6-4.7,4.6h-9.5l0-0.2c-0.1-4.5-4.7-4.6-4.7-4.6h-4.7c-4.2,0-4.7,3.8-4.7,4.6l0,0.2h-4.7c-4.7,0-4.7-4.6-4.7-4.7
					v0c-4.7,0-4.7,4.7-4.7,4.7c0,2.8,1.7,3.9,3,4.4l0.9,0.3h-4c0,4.2,3.8,4.7,4.6,4.7l0.2,0v4.7c0,0,0.1,4.7,4.7,4.7
					c3.2,0,4.3-2.3,4.6-3.6l0.2-0.7l0.2,0.7c0.3,1.3,1.3,3.6,4.6,3.6c4.2,0,4.7-3.8,4.7-4.6l0-0.2l0.2,0c4.5,0.1,4.6,4.6,4.6,4.7
					v4.7l-4.7,4.7h0l0,0.2c-0.1,4.1-3.7,4.5-4.6,4.6v0c4.5,0.1,4.6,4.6,4.6,4.7v4.7c0,0,0,1.2,0.6,2.4c0.5,1.1,1.6,2.3,4,2.4l0.2,0
					v4.7l9.5,9.5v4.7c0,0,0,1.2,0.6,2.4c0.5,1.1,1.6,2.3,4,2.4l0.2,0v4.7l4.7,4.7v4.7c0,0,0.1,4.7,4.7,4.7l4.7,0
					c0-0.2,0.1-4.7,4.7-4.7h4.7c0,0,4.6-0.1,4.7-4.6l0-0.2h4.7c0-4.7,4.5-4.7,4.7-4.7c8.6,0,9.4-7.8,9.5-9.3l0-0.1l0.1,0
					c0.8-0.1,4.6-0.5,4.6-4.7c0-2.5-1.3-3.6-2.4-4.2c-1.2-0.6-2.3-0.6-2.4-0.6h-4.7v-4.7h-4.7c0,4.7-4.5,4.7-4.7,4.7h-4.7l-4.7-4.7
					v-4.7l-4.7-4.7v-4.7h4.7l0,0.2c0.1,9.2,9.4,9.3,9.5,9.3h9.5l0,0.2c0.1,2.3,1.3,3.5,2.4,4c1.2,0.6,2.3,0.6,2.4,0.6h23.7l0,0.2
					c0,0.4,0.1,1.3,0.6,2.2c0.5,1.1,1.6,2.3,4,2.4l0.2,0l0,0.2c0.1,2.3,1.3,3.5,2.4,4c0.2,0.1,0.4,0.2,0.6,0.3l0.9,0.3H688l4.7,4.7
					h4.7v-4.7l4.7,4.7v19c0,4.2,3.8,4.7,4.6,4.7l0.2,0v4.7l4.7,4.7v4.7c4.3,0,4.7-3.9,4.7-4.7l0-0.1l4.7-4.7v-14.2h4.7l19-19h9.5
					v4.7l4.7,4.7v9.5l4.7,0c0-0.2,0.1-4.6,4.6-4.7l0.2,0v9.5c0,0,0.1,4.6,4.6,4.7l0.2,0v4.7l4.7-4.7h4.7l0,0.2
					c0,0.4,0.1,1.3,0.6,2.2c0.5,1.1,1.7,2.3,4.1,2.4l0.1,0l4.7,4.7c2.5,0,3.6-1.3,4.2-2.4c0.5-0.9,0.6-1.9,0.6-2.2l0-0.2h4.7v-14.2
					c-4.7,0-4.7-4.6-4.7-4.7v0c-4.7,0-4.7-4.6-4.7-4.7c0-4.7,4.5-4.7,4.7-4.7l9.5,0l4.7-4.7h9.5c4.2,0,4.7-3.8,4.7-4.6l0-0.1l0.1,0
					c0.8-0.1,4.6-0.5,4.6-4.7c0-4.7,4.6-4.7,4.7-4.7h0v-19c0-2.5-1.3-3.6-2.4-4.2c-0.9-0.5-1.9-0.6-2.2-0.6l-0.2,0v-4.7h4.7l4.7-4.7
					l-9.5,0l-4.7-4.7l0.4,0c3.9-0.2,4.3-3.9,4.4-4.6l0-0.2h4.7v-4.7l0.2,0c4.5,0.1,4.6,4.6,4.6,4.7v0h4.7l4.7,4.7v14.2h4.7
					c0,0,4.7-0.1,4.7-4.7v-4.7c0,0,0-1.2-0.6-2.4c-0.5-1.1-1.6-2.3-4-2.4l-0.2,0v-4.7l0.2,0c0.8-0.1,4.5-0.5,4.6-4.7l0-0.1l9.5-9.5
					v4.7c8.9,0,9.5-8.5,9.5-9.4l0-0.1l9.5-9.5v-4.7l0.2,0c0.8-0.1,4.6-0.5,4.6-4.7v-14.2c0,0-0.1-4.7-4.7-4.7h-4.7l0-0.2
					c-0.1-0.7-0.5-4.5-4.6-4.6l-0.2,0v-4.7l19-19h19v-4.7l4.7,4.7h9.5v-4.7l9.5-9.5h4.7v4.7h4.7l4.7-4.7c0-4.3,3.8-4.7,4.6-4.7
					l0.2,0v4.7l-14.2,14.2c0,4.7-4.6,4.7-4.7,4.7h0v4.7l-0.2,0c-2.3,0.1-3.5,1.3-4,2.4c-0.5,0.9-0.6,1.9-0.6,2.2l0,0.1l-0.1,0
					c-0.8,0.1-4.6,0.5-4.6,4.7c0,2.5,1.3,3.6,2.4,4.2c0.9,0.5,1.9,0.6,2.2,0.6l0.2,0v16.6l-4.7,4.7h2.4l7.1-7.1v-4.7l4.7-4.7
					c0-4.7,4.6-4.7,4.7-4.7h0v-4.7c0-4.7,4.6-4.7,4.7-4.7h0V325c0-3-1.9-4.1-3.5-4.6l-0.7-0.2l0.7-0.1c3.4-0.8,3.5-4.6,3.5-4.6
					c0-4.7,4.5-4.7,4.7-4.7l4.7,0c0-0.2,0.1-4.7,4.7-4.7c4.7,0,4.7,4.6,4.7,4.7v0l9.5-9.5l4.6,0l0-0.2c0-0.8,0.5-4.6,4.7-4.7l0.4,0
					l-0.2,0.2h9.4c0,0-0.1-4.6-4.6-4.7l-0.2,0V287c-0.2,0-4.6-0.1-4.7-4.6l0-0.2h9.5v-9.5l0.2,0c0.8,0,4.6,0.5,4.6,4.7h4.7
					c0.2,0,4.7,0.1,4.7,4.7c0,4.7,4.7,4.7,4.7,4.7v-4.7l9.5-9.5L1024.9,268z M583.5,322.6c-1.8-0.1-2.1-1.7-2.2-2.2l0-0.2l0.2,0
					c1.8,0.1,2.1,1.7,2.2,2.2l0,0.2L583.5,322.6z M600.5,308.4c0.5,0,2.1,0.3,2.2,2.2l0,0.2l-0.2,0c-0.5,0-2.1-0.3-2.2-2.2l0-0.2
					L600.5,308.4z M593.3,334.4H593H593.3L593.3,334.4z M593.1,306l0-9.5l0.2,0c4.5,0.1,4.6,4.6,4.6,4.7v4.7H593.1z M597.9,344.1
					L597.9,344.1L597.9,344.1L597.9,344.1L597.9,344.1L597.9,344.1l0-0.3l0,0l0,0l0,0l0,0.2h0v0l0,0l0,0L597.9,344.1L597.9,344.1z
					 M605,322.6l-0.2,0c-1.8-0.1-2.1-1.7-2.2-2.2h-0.2l0-0.2c-1.9-0.1-2.2-1.7-2.2-2.2l0-0.2h2.4v-1.6l0.3,0.5
					c0.1,0.2,0.3,0.4,0.4,0.5l0.1,0.1c0.5,0.4,1.1,0.5,1.3,0.5l0.2,0V322.6z M612.3,358.2H612H612.3L612.3,358.2z M616.8,410.5v-0.3
					V410.5L616.8,410.5z M621.6,391.4L621.6,391.4L621.6,391.4L621.6,391.4l0,0.2l0,0l0,0L621.6,391.4l0,0.2l0-0.3l0,0l0,0l0,0
					L621.6,391.4L621.6,391.4z M636,301.3L636,301.3l-0.3,0L636,301.3z M650.1,377.3c-0.1,4.5-4.6,4.6-4.7,4.6h-9.5
					c0,4.2,3.8,4.7,4.6,4.7l0.2,0l0,0.2c0.1,2.3,1.3,3.5,2.4,4c1,0.5,2,0.6,2.3,0.6l0.1,0l4.7,4.7l-0.4,0c-2.2,0.1-3.3,1.4-3.8,2.4
					c-0.6,1.2-0.6,2.3-0.6,2.4v9.5h-9.5l-4.7-4.7l4.7-4.7v-4.7l-4.7-4.7v-4.7c0-2.5-1.3-3.6-2.4-4.2c-0.8-0.4-1.6-0.5-2-0.6l-0.4,0
					l4.7-4.7l0.1,0c4.1,0,4.6-3.8,4.7-4.6l0-0.2h9.5l0,0.2c0.1,4.1,3.8,4.5,4.6,4.6l0.2,0L650.1,377.3z M662.1,284.6L662.1,284.6
					l-0.3,0L662.1,284.6z M659.6,381.9v-4.7h4.7l0,9.5L659.6,381.9z M666.5,377.1c-1.8-0.1-2.1-1.7-2.2-2.2l0-0.2l0.2,0
					c1.8,0.1,2.1,1.7,2.2,2.2l0,0.2L666.5,377.1z M669.1,277.5L669.1,277.5L669.1,277.5L669.1,277.5z M716.5,375
					c0,0.5-0.4,2.2-2.4,2.2h-4.7c-0.1,0-2.4,0-2.4-2.4l-2.4,2.4v4.7l-2.4-2.4v-2.4c0-0.2,0.1-4.7,4.7-4.7h0c0.1,0,2.4,0,2.4,2.4h7.1
					L716.5,375z M726.1,377.2h-0.3H726.1L726.1,377.2z M730.7,370c0,0-0.6,0-1.2-0.3c-0.7-0.4-1.1-1-1.2-1.9l0-0.2h2.4
					c0.1,0,2.3,0,2.4,2.2l0,0.2H730.7z M745,353.3v0.3V353.3L745,353.3z M745,367.7v0.2V367.7l0,0.1l0-0.3l0,0L745,367.7z
					 M752.1,341.6v-1.6l0.3,0.5c0.2,0.3,0.5,0.6,0.8,0.8l0.6,0.3H752.1z M759.2,382.1l0-0.3h0V382.1z M759.4,348.7H759H759.4
					L759.4,348.7z M766.3,325.2c-0.1,0-0.2-0.1-0.2-0.2c0-0.1,0.1-0.2,0.2-0.2c0.1,0,0.2,0.1,0.2,0.2
					C766.5,325.1,766.4,325.2,766.3,325.2z M768.7,344.1L768.7,344.1L768.7,344.1L768.7,344.1L768.7,344.1L768.7,344.1l0-0.3l0,0
					l0,0l0,0l0,0.2h0v0l0,0l0,0L768.7,344.1L768.7,344.1z M782.9,334.4l-0.2,0c-1.8-0.1-2.1-1.7-2.2-2.2l0-0.2h2.4V334.4z
					 M802.1,291.7l-0.3,0l0,0H802.1z M792.2,268h0.3l-0.2,0v0v0L792.2,268L792.2,268L792.2,268z M804.3,339.2c0,0,0,0.6-0.3,1.2
					c-0.4,0.8-1.1,1.2-2.1,1.2v2.4l-4.7,4.7c0,0.1,0,2.4-2.4,2.4c0,0.1,0,2.4-2.4,2.4l-4.8,0l0-0.2c0-0.5,0.4-2.2,2.4-2.2h2.4
					l7.1-7.1v-2.4c0-0.1,0-2.4,2.4-2.4v-2.4c0,0,0-0.6,0.3-1.2c0.4-0.7,1-1.1,1.9-1.2l0.2,0V339.2z M806.8,239.6l-0.3,0l0.1,0
					l-0.1,0L806.8,239.6L806.8,239.6z M825.6,367.7l-0.2,0c-2.2-0.1-2.2-2.3-2.2-2.4c0-2,1.7-2.3,2.2-2.4l0.2,0V367.7z M868.3,381.9
					h-2.4v-2.4h2.4V381.9z M882.7,310.7h-0.3H882.7L882.7,310.7z"/>
				<path class="st7" d="M768.8,495.7L768.8,495.7c4.5,0.1,4.6,4.6,4.6,4.7v0l4.7,4.7v4.7l9.5,9.5V510c0,0-0.1-4.7-4.7-4.7l-0.1,0
					l-9.5-9.5v-8C773.4,492,769.7,495.7,768.8,495.7z"/>
				<path class="st7" d="M1001.1,234.8l9.3,0c-4.5-0.1-4.6-4.6-4.6-4.7v0h-4.7c-4.7,0-4.7,4.7-4.7,4.7v4.6h0
					C996.5,234.9,1001,234.8,1001.1,234.8z"/>
				<path class="st7" d="M953.7,239.6l-4.7-4.7c0,0,0,1.2,0.6,2.4C950.1,238.3,951.3,239.6,953.7,239.6z"/>
				<path class="st7" d="M901.5,215.8l-4.7-4.7H892c0,0-4.7,0.1-4.7,4.7H901.5z"/>
				<path class="st7" d="M892,206.4c-2.5,0-3.6,1.3-4.2,2.4c-0.6,1.2-0.6,2.3-0.6,2.4c2.5,0,3.6-1.3,4.2-2.4
					C892,207.6,892,206.4,892,206.4z"/>
				<path class="st7" d="M877.8,211.1c0,0-0.1-4.7-4.7-4.7C873.1,206.4,873.1,211.1,877.8,211.1z"/>
				<path class="st7" d="M877.8,192.1c0,0-0.1-4.7-4.7-4.7C873.1,187.4,873.1,192.1,877.8,192.1z"/>
				<path class="st7" d="M910.8,196.9l0.2,0l0,0.2c0.1,0.8,0.5,4.6,4.7,4.6c0,0,4.7-0.1,4.7-4.7l-4.7-4.7h-9.5
					C906.3,192.2,906.3,196.8,910.8,196.9z"/>
				<path class="st7" d="M887.3,201.6v-4.7h9.5c0,0,4.7-0.1,4.7-4.7c0,0,0-1.2-0.6-2.4c-0.5-1.1-1.7-2.4-4.2-2.4H892
					c0,0,0,1.2-0.6,2.4c-0.8,1.5-2.1,2.3-4,2.4l-0.2,0v-4.7c0,0-0.1-4.7-4.7-4.7v14.2C882.5,196.9,882.6,201.6,887.3,201.6z"/>
				<path class="st7" d="M811.4,201.6v4.7h4.7C816.1,206.3,816,201.6,811.4,201.6z"/>
				<path class="st7" d="M811.4,180.3c0,0,0-0.6-0.3-1.2c-0.3-0.5-0.9-1.2-2.1-1.2c0,0,0,0.6,0.3,1.2
					C809.6,179.6,810.2,180.3,811.4,180.3z"/>
				<path class="st7" d="M799.5,168.4c-2.3,0-2.4,2.3-2.4,2.4C799.5,170.8,799.5,168.5,799.5,168.4z"/>
				<path class="st7" d="M794.8,158.9c0,0.1,0,2.4,2.4,2.4c2.3,0,2.4-2.3,2.4-2.4H794.8z"/>
				<path class="st7" d="M792.4,158.9c1.2,0,1.8-0.6,2.1-1.2c0.3-0.6,0.3-1.2,0.3-1.2c-1.2,0-1.8,0.6-2.1,1.2
					C792.4,158.3,792.4,158.9,792.4,158.9z"/>
				<path class="st7" d="M775.8,161.3l2.4,0l2.4-2.4h4.7c1.9,0,2.3-1.6,2.4-2.2l0-0.2h2.4c2.3,0,2.4-2.3,2.4-2.4v-2.4
					c0-1.9-1.6-2.3-2.2-2.4l-0.1,0l0-0.1c0-1.1-0.7-1.7-1.2-1.9c-0.4-0.2-0.8-0.3-1-0.3l-0.2,0v-2.4h-2.4v-2.4
					c0-1.2-0.6-1.8-1.2-2.1c-0.6-0.3-1.2-0.3-1.2-0.3v4.7l-2.4-2.4v2.4c0,2.3-2.3,2.4-2.4,2.4h0v4.7l-0.2,0
					c-2.2,0.1-2.2,2.3-2.2,2.4v2.4l-2.4,2.4C773.4,161.2,775.7,161.3,775.8,161.3z"/>
				<path class="st7" d="M768.7,135.2l2.4-2.4v-2.4h-7.1c-0.1,0-2.4,0-2.4,2.4v2.4l-0.2,0c-0.6,0.1-2.1,0.4-2.2,2.2l0,0.1l-0.1,0
					c-0.7,0.1-2.2,0.4-2.2,2.4h2.4v2.4c0,0.1,0,2.3,2.2,2.4l0.2,0v2.4l2.4-2.4l4.7,4.7l0,0.1c0,0.2,0.1,0.6,0.3,1.1
					c0.3,0.5,0.9,1.2,2.1,1.2l2.4,0c0-0.1,0-2.4,2.4-2.4V147l-2.4-2.4v-2.4l2.4,2.4v-11.9c0,0,0-0.6-0.3-1.2
					c-0.3-0.5-0.9-1.2-2.1-1.2v2.4l-4.7,4.7V135.2z"/>
				<path class="st7" d="M759.2,158.9l-2.4-2.4C756.8,156.6,756.9,158.9,759.2,158.9z"/>
				<polygon class="st7" points="754.4,139.9 754.4,142.3 756.8,142.3 				"/>
				<polygon class="st7" points="752.1,137.6 754.4,137.6 759.2,132.8 756.8,132.8 754.4,130.4 752.1,130.4 752.1,135.2 
					754.4,135.2 				"/>
				<path class="st7" d="M754.4,118.6h2.4v4.7h-2.4c-0.1,0-2.4,0-2.4,2.4c0,1.9,1.6,2.3,2.2,2.4l0.1,0l0,0.1
					c0.1,2.2,2.3,2.2,2.4,2.2h4.7l2.4-2.4h2.4c2.3,0,2.4-2.3,2.4-2.4V121l0.2,0c2.2-0.1,2.2-2.3,2.2-2.4c-4.7,0-4.7-4.6-4.7-4.7
					v-2.4l-2.4-2.4v2.4l-0.2,0c-1.1,0.1-1.7,0.7-1.9,1.2c-0.2,0.4-0.3,0.8-0.3,1l0,0.2h-2.4L754.4,118.6z"/>
				<path class="st7" d="M748.5,113.5c0.6,0.3,1.2,0.3,1.2,0.3h2.4v-2.4h-4.7C747.3,112.7,748,113.3,748.5,113.5z"/>
				<path class="st7" d="M754.4,163.7c-2.3,0-2.4,2.3-2.4,2.4L754.4,163.7z"/>
				<polygon class="st7" points="761.6,175.5 766.3,175.5 766.3,173.1 763.9,173.1 				"/>
				<polygon class="st7" points="763.9,177.9 763.9,180.3 766.3,177.9 				"/>
				<path class="st7" d="M771.1,175.5c-2.3,0-2.4,2.3-2.4,2.4C771,177.9,771.1,175.6,771.1,175.5z"/>
				<path class="st7" d="M747.3,173.1c0-0.1,0-2.4-2.4-2.4C745,170.9,745,173.1,747.3,173.1z"/>
				<path class="st7" d="M728.4,168.4c0-0.1,0-2.4-2.4-2.4C726,166.1,726,168.4,728.4,168.4z"/>
				<path class="st7" d="M726,185c0,0,0,0.6,0.3,1.2c0.3,0.5,0.9,1.2,2.1,1.2c0,0,0-0.6-0.3-1.2C727.8,185.6,727.2,185,726,185z"/>
				<path class="st7" d="M726,192.1c-0.1,0-2.4,0-2.4,2.4C723.7,194.5,726,194.4,726,192.1z"/>
				<path class="st7" d="M718.9,204c0-0.1,0-2.4-2.4-2.4C716.5,201.7,716.5,204,718.9,204z"/>
				<path class="st7" d="M734.3,203.7c0.5-0.3,1.2-0.9,1.2-2.1c-0.1,0-2.4,0-2.4,2.4C733.1,204,733.7,204,734.3,203.7z"/>
				<path class="st7" d="M726.2,206.4c2.2,0.1,2.2,2.3,2.2,2.4v0c2.3,0,2.4-2.3,2.4-2.4L726.2,206.4z"/>
				<path class="st7" d="M733.1,206.4c-2.3,0-2.4,2.3-2.4,2.4L733.1,206.4z"/>
				<rect x="716.5" y="218.2" class="st7" width="2.4" height="2.4"/>
				<polygon class="st7" points="704.6,215.8 704.6,218.2 707,215.8 				"/>
				<polygon class="st7" points="709.4,213.5 709.4,211.1 707,213.5 				"/>
				<path class="st7" d="M695.1,213.5h-2.4v2.4h4.7C697.5,213.5,695.2,213.5,695.1,213.5z"/>
				<path class="st7" d="M633.5,249c-1.2,0-1.8,0.6-2.1,1.2c-0.3,0.6-0.3,1.2-0.3,1.2v2.4h2.4c2.3,0,2.4-2.3,2.4-2.4
					C635.8,249.1,633.6,249,633.5,249z"/>
				<path class="st7" d="M643,225.3l-0.1,0c-0.7,0.1-2.2,0.4-2.2,2.4v2.4c0,0,0,0.6,0.3,1.2c0.3,0.5,0.9,1.2,2.1,1.2v-2.4l4.7,4.7
					l0,2.4c0.1,0,2.4,0,2.4,2.4h7.1l0-2.4c-0.2,0-4.7-0.1-4.7-4.7v-11.9l2.4-2.4v-2.4l2.4-2.4v-4.7c0-0.1,0-2.4,2.4-2.4V204h2.4
					v-2.4h2.4l2.4-2.4v-2.4h2.4c0,0,0-1.2,0.6-2.4c0.8-1.6,2.2-2.4,4.2-2.4l0-2.4h4.7c0-0.1,0-2.4,2.4-2.4h2.4c0,0,0-0.6,0.3-1.2
					c0.4-0.8,1.1-1.2,2.1-1.2h2.4v-2.4l2.4-2.4c0,0-0.1-4.7-4.7-4.7h-2.4l-2.4,2.4v2.4h-2.4l-2.4,2.4h-2.4l-2.4,2.4l-2.4-2.4h-2.4
					v2.4h-2.4c0,0.1,0,2.4-2.4,2.4c-2.3,0-2.4,2.3-2.4,2.4v2.4l-2.4,2.4h-2.4v2.4h-2.4v2.4l2.4,2.4h-2.4v2.4l-0.2,0
					c-0.7,0.1-2.2,0.4-2.2,2.4v2.4h-2.4l-2.4,2.4h4.1l-0.6,0.3c-0.8,0.4-1.2,1.1-1.2,2.1h2.4l-2.4,2.4h-2.4v2.4l-0.2,0
					c-0.7,0.1-2.2,0.4-2.2,2.4l2.4,2.4L645,223c-0.7,0.1-2,0.6-2,2.2L643,225.3z"/>
				<polygon class="st7" points="645.3,237.2 645.3,234.8 643,234.8 				"/>
				<path class="st7" d="M626.4,123.3l2.4-2.4v-2.4l2.4,2.4h2.4c0,0,0-0.6-0.3-1.2c-0.3-0.5-0.8-1.2-2-1.2l-0.1,0l-2.4-2.4l-2.4,2.4
					c0,0,0,0.6-0.3,1.2c-0.4,0.8-1.1,1.2-2.1,1.2h-2.4l2.4,2.4H626.4z"/>
				<path class="st7" d="M635.8,121l-2.4,2.4h-2.4c0,0.1,0,2.4-2.4,2.4c-0.1,0-2.4,0-2.4,2.4h4.7l-2.4,2.4h2.4c0.1,0,2.4,0,2.4-2.4
					v-2.4h2.4c0-0.1,0-2.4,2.4-2.4l2.4-2.4c0-0.1,0-2.3-2.2-2.4l-0.2,0v-2.4h-2.4l-2.4,2.4L635.8,121z"/>
				<path class="st7" d="M661.9,125.7L661.9,125.7l-2.4-2.4h-4.7l2.4,2.4h-2.4c-2.3,0-2.4,2.3-2.4,2.4v2.4h7.1v-2.4
					C659.6,125.7,661.8,125.7,661.9,125.7z"/>
				<path class="st7" d="M661.9,123.3c2.3,0,2.4,2.3,2.4,2.4v0h2.4l4.7-4.7v-2.4l-2.4-2.4l-2.4,2.4l-0.1,0c-2.3,0-2.3-2.3-2.3-2.4v0
					c-2.3,0-2.4,2.3-2.4,2.4V123.3z"/>
				<path class="st7" d="M676.2,121l4.7-4.7v-2.4l-2.4-2.4h-2.4c0,4.7-4.6,4.7-4.7,4.7h0v2.4l2.4,2.4H676.2z"/>
				<polygon class="st7" points="659.6,116.2 657.2,113.8 654.8,113.8 657.2,116.2 				"/>
				<polygon class="st7" points="657.2,106.7 659.6,109.1 659.6,104.4 657.2,104.4 654.8,106.7 				"/>
				<polygon class="st7" points="652.5,116.2 657.2,121 657.2,118.6 652.5,113.8 650.1,113.8 650.1,111.5 647.7,113.8 650.1,116.2 
									"/>
				<path class="st7" d="M650.1,118.6l-2.4-2.4v2.4c0,0,0,0.6,0.3,1.2c0.3,0.5,0.9,1.2,2.1,1.2c2.3,0,2.4-2.3,2.4-2.4H650.1z"/>
			</g>
			<g id="Africa_2_">
				<path class="st8" d="M640,493.4c0.6-1.2,0.6-2.3,0.6-2.4v-4.7c-4.2,0-4.7,3.8-4.7,4.6l0,0.2h-19v-4.7l-9.5-9.5l0-0.1
					c0-2.4-1.3-3.5-2.4-4.1c-0.9-0.5-1.9-0.6-2.2-0.6l-0.2,0v-4.7c0,0-0.1-4.6-4.6-4.7l-0.2,0l0-4.9c-0.1-2.3-1.3-3.5-2.4-4
					c-0.9-0.5-1.9-0.6-2.2-0.6l-0.2,0v-4.7c0-4.2-3.8-4.7-4.6-4.7l-0.2,0v-4.7h4.7v-4.7c0-4.7-4.7-4.7-4.7-4.7h-23.7
					c-4.7,0-4.7-4.5-4.7-4.7v0h-4.7c-4.7,0-4.7,4.7-4.7,4.7v4.7l-0.2,0c-4.5-0.1-4.6-4.6-4.6-4.7v0H541l-4.7-4.7h-9.5l0-0.2
					c-0.1-3.1-2.3-4.1-3.6-4.4l-0.7-0.2l0.7-0.2c1.3-0.3,3.6-1.3,3.6-4.6c0-4.7-4.7-4.7-4.7-4.7l-19,0c-2.5,0-3.6,1.3-4.2,2.4
					c-0.5,0.9-0.6,1.9-0.6,2.2l0,0.2h-4.7c-4.2,0-4.7,3.8-4.7,4.6l0,0.2H484l0-0.2c-0.1-4.5-4.7-4.6-4.7-4.6v4.7l-0.2,0
					c-9.2,0.1-9.3,9.4-9.3,9.5v4.7l-4.7,4.7l-0.1,0c-4.2,0-4.6,3.8-4.7,4.6l0,0.2l-0.2,0c-4.8,0.1-7.1,2.6-8.1,4.7
					c-1.2,2.3-1.2,4.6-1.2,4.7v23.7l-0.2,0c-4.5,0.1-4.6,4.7-4.6,4.7l2.4,0v2.4l2.4,2.4l0,0.1c0,4.2,3.8,4.6,4.6,4.7l0.2,0l0,0.2
					c0.1,4.1,3.8,4.5,4.6,4.6l0.2,0v4.7c4.7,0,4.7,4.6,4.7,4.7v0c4.7,0,4.7,4.6,4.7,4.7v0h23.7c0,0,4.6-0.1,4.7-4.6l0-0.2h9.5
					c0.2,0,4.7,0.1,4.7,4.7h9.5v19l9.5,9.5v4.7c0,0,0,1.2,0.6,2.4c0.5,1.1,1.6,2.3,4,2.4l0.2,0v4.7l-0.2,0c-0.8,0.1-4.6,0.5-4.6,4.7
					v4.7l-0.2,0c-0.8,0.1-4.6,0.5-4.6,4.7v4.7c0,4.2,3.8,4.7,4.6,4.7l0.2,0v4.7c4.7,0,4.7,4.6,4.7,4.7v14.2c0,4.3,3.9,4.7,4.7,4.7
					l0.1,0l4.7,4.7v9.5c0,0,0,1.2,0.6,2.4c0.5,1.1,1.7,2.4,4.2,2.4h19c0.1,0,9.4-0.1,9.5-9.3l0-0.2l0.2,0c0.8-0.1,4.6-0.5,4.6-4.7
					c0-4.7,4.5-4.7,4.7-4.7h0v-9.5l4.7,0c0,0,4.7-0.1,4.7-4.7v-4.7c0,0-0.1-4.6-4.6-4.7l-0.2,0l0-0.2c0-0.8,0.5-4.6,4.7-4.6v0
					c0-0.2,0.1-4.7,4.7-4.7c4.8,0,9.5-4.7,9.5-9.5v-9.5c-4.7,0-4.7-4.5-4.7-4.7l0-19l0.2,0c4.1-0.1,4.5-3.8,4.6-4.6l0-0.2h4.7
					c0-9.4,9.1-9.5,9.5-9.5l4.7-4.7v-4.7l0.2,0c4.5-0.1,4.6-4.7,4.6-4.7v-4.7l0.2,0C638.4,495.7,639.5,494.4,640,493.4z
					 M495.7,500.5c-0.5,0-2.1-0.3-2.2-2.2l0-0.2l0.2,0c0.5,0,2.1,0.3,2.2,2.2l0,0.2L495.7,500.5z M503.2,495.7l-0.2,0l0,0l0,0
					l-0.2,0l0,0L503.2,495.7l-0.1,0L503.2,495.7z M526.9,505.2l-0.3,0l0,0L526.9,505.2l-0.1,0L526.9,505.2z M536.2,486.3l-4.7-4.7
					h2.4c2.3,0,2.4,2.3,2.4,2.4v0h2.4L536.2,486.3z M541,576.4V574l0.2,0c1.8,0.1,2.1,1.7,2.2,2.2l0,0.2H541z M549.3,527.9
					c-0.1,0-0.2-0.1-0.2-0.2s0.1-0.2,0.2-0.2c0.1,0,0.2,0.1,0.2,0.2S549.4,527.9,549.3,527.9z M564.7,581.1l0-0.2
					c0.1-1.8,1.7-2.1,2.2-2.2l0.2,0l0,0.2c0.1,1.1,0.7,1.6,1.1,1.9l0.6,0.3H564.7z M586,455.2c0.1-1.8,1.7-2.1,2.2-2.2l0.2,0l0,0.2
					c-0.1,1.8-1.7,2.1-2.2,2.2l-0.2,0L586,455.2z M581.3,519.3c0-0.1,0-0.3,0.1-0.5c0.2-0.6,0.6-1.5,1.7-1.7c0.1,0,0.3,0,0.4,0
					l0.2,0l0,0.2c0,0.5-0.3,2.1-2.2,2.2l-0.2,0L581.3,519.3z M578.9,521.8l0.2,0c0.5,0,2.1,0.3,2.2,2.2l0,0.2h-2.4V521.8z
					 M576.5,528.8c0.1-1.8,1.7-2.1,2.2-2.2l0.2,0l0,0.2c-0.1,1.8-1.7,2.1-2.2,2.2l-0.2,0L576.5,528.8z M576.5,567.1
					c0,0.1,0,0.3-0.1,0.4c-0.2,1.1-1,1.5-1.7,1.7l-0.1,0c-0.2,0-0.3,0.1-0.4,0.1l-0.2,0l0,0.2c0,0.5-0.3,2.1-2.2,2.2l-0.2,0l0-0.2
					c0-0.5,0.3-2.1,2.2-2.2l0.2,0l0-0.2c0.1-1.8,1.7-2.1,2.2-2.2l0.2,0L576.5,567.1z M581.3,543.2c0-2.3-2.3-2.4-2.4-2.4
					c-2.3,0-2.4-2.3-2.4-2.4v-4.7c0-2,1.7-2.3,2.2-2.4l0.2,0l0,7.1c2.3,0,2.4,2.3,2.4,2.4c0,2,1.7,2.3,2.2,2.4l0.2,0v2.4l-0.2,0
					C581.3,545.4,581.3,543.3,581.3,543.2z M586,564.7c0,0.5-0.3,2.1-2.2,2.2l-0.2,0l0-0.2c0-0.5,0.3-2.1,2.2-2.2l0.2,0L586,564.7z
					 M583.7,524.4l0-0.2l0.2,0c1.1-0.1,4.5-0.6,4.6-4.6l0-0.2h4.7l0,4.7c0,0.2-0.1,4.7-4.7,4.7C584.1,529,583.7,525.1,583.7,524.4z
					 M593.1,557.5l0,4.7l-0.2,0c-2.2-0.1-2.2-2.3-2.2-2.4v-11.9l0.2,0c2.2,0.1,2.2,2.3,2.2,2.4V557.5L593.1,557.5z M597.9,510.2
					c-0.1,1.8-1.7,2.1-2.2,2.2l-0.2,0l0-0.2c0.1-1.8,1.7-2.1,2.2-2.2l0.2,0L597.9,510.2z"/>
				<path class="st8" d="M635.8,571.6v-14.2c-8.6,0-9.4,7.8-9.5,9.3l0,0.2l-0.2,0c-9.2,0.1-9.3,9.4-9.3,9.5v14.2
					c0,2.5,1.3,3.6,2.4,4.2c1.2,0.6,2.3,0.6,2.4,0.6c9.4,0,9.5-9.4,9.5-9.5v-9.5l0.2,0C635.8,576.3,635.8,571.7,635.8,571.6z"/>
				<path class="st8" d="M650.1,581.1c0,0,0,0.6,0.3,1.2c0.3,0.5,0.8,1.2,2.1,1.2c0,0,0-0.6-0.3-1.2
					C651.9,581.8,651.3,581.1,650.1,581.1z"/>
				<path class="st8" d="M657.2,578.8c0,0-0.6,0-1.2,0.3c-0.5,0.3-1.2,0.8-1.2,2.1c0,0,0.6,0,1.2-0.3
					C656.5,580.6,657.2,580,657.2,578.8z"/>
			</g>
		</g>
		<g>
			<circle class="st9" cx="701.9" cy="467.9" r="10.7"/>
			<circle class="st10" cx="701.9" cy="467.9" r="4.6"/>
		</g>
		<circle class="st9" cx="754.2" cy="448.1" r="4.6"/>
		<g>
			<circle class="st9" cx="747.3" cy="456.5" r="10.7"/>
			<circle class="st10" cx="747.3" cy="456.5" r="4.6"/>
		</g>
		<g>
			<circle class="st9" cx="272.9" cy="442.9" r="10.7"/>
			<circle class="st10" cx="272.9" cy="442.9" r="4.6"/>
		</g>
		<g>
			<circle class="st9" cx="811.9" cy="452.9" r="10.7"/>
			<circle class="st10" cx="811.9" cy="452.9" r="4.6"/>
			<circle class="st10" cx="882" cy="415.5" r="4.6"/>
			<circle class="st10" cx="878" cy="418.5" r="4.6"/>
		</g>
		<g>
			<circle class="st9" cx="800.9" cy="489.9" r="10.7"/>
			<circle class="st10" cx="800.9" cy="489.9" r="4.6"/>
		</g>
		<g>
			<circle class="st9" cx="835.4" cy="428.5" r="10.7"/>
			<circle class="st10" cx="835.4" cy="428.5" r="4.6"/>
		</g>
		<circle class="st10" cx="29" cy="93.5" r="13"/>
		<circle class="st9" cx="143" cy="93.5" r="13"/>
		<text transform="matrix(1 0 0 1 48 103.4576)" class="st11 st12 st13">2005</text>
		<text transform="matrix(1 0 0 1 165 103.4576)" class="st11 st12 st13">2070</text>
		<g>
			<path class="st14" d="M874,699.5H717.4c-8.8,0-16-7.2-16-16V467.8"/>
		</g>
		<g>
			<path class="st14" d="M873,665H763.4c-8.8,0-16-7.2-16-16V455.8"/>
		</g>
		<g>
			<path class="st14" d="M1050.3,166.5H770.7c-8.8,0-16,7.2-16,16v265.2"/>
		</g>
		<g>
			<path id="SVGID_x5F_1_x5F_" class="st15" d="M1051,538.5H817.4c-8.8,0-16-7.2-16-16v-30.6"/>
			<text class="st11 st16 st17">			<textPath  xlink:href="#SVGID_x5F_1_x5F_" startOffset="87.565%">
 			</textPath>
</text>
		</g>
		<g>
			<path class="st14" d="M892.6,487h-65.2c-8.8,0-16-7.2-16-16v-17.8"/>
		</g>
		<g>
			<path class="st14" d="M1048.5,377H898.9c-8.8,0-16,7.2-16,16v22"/>
		</g>
		<g>
			<path class="st14" d="M1049.5,341.5H893.9c-8.8,0-16,7.2-16,16V418"/>
		</g>
		<g>
			<line class="st14" x1="966" y1="428.6" x2="835.3" y2="428.6"/>
		</g>
		<g>
			<line class="st14" x1="402" y1="443.6" x2="272.7" y2="443.6"/>
		</g>
		<circle class="st10" cx="293" cy="396.1" r="4.6"/>
		<circle class="st10" cx="246.1" cy="435" r="4.6"/>
		<circle class="st10" cx="579" cy="429.8" r="4.6"/>
		<circle class="st9" cx="778.4" cy="486.5" r="4.6"/>
		<g>
			<circle class="st9" cx="766.4" cy="470.5" r="4.6"/>
		</g>
		<g>
			<circle class="st9" cx="797.4" cy="460.5" r="4.6"/>
		</g>
		<g>
			<path class="st14" d="M1051,615.7H782.1c-8.8,0-16-7.2-16-16V470.5"/>
		</g>
		<g>
			<path class="st14" d="M1050.3,203.5h-256c-8.8,0-16,7.2-16,16v267"/>
		</g>
		<g>
			<path class="st14" d="M1050.3,239.5H813c-8.8,0-16,7.2-16,16v205"/>
		</g>
		<path class="st14" d="M1051.3,535.8H816.7c-8.8,0-16-7.2-16-16v-29.3"/>
		<g>
			<path class="st14" d="M734.7,168H595.1c-8.8,0-16,7.2-16,16v245.8"/>
		</g>
		<g>
			<line class="st14" x1="422.6" y1="396.5" x2="293.4" y2="396.5"/>
		</g>
		<g>
			<line class="st14" x1="245.5" y1="434.6" x2="24" y2="434.6"/>
		</g>
	</g>
	<g id="SC_4_">
		<g>
			<path class="st2" d="M45.5,56l-10-21.5L25.9,56h-8.7l16.3-35.5h8.4L36.3,33h7L54.1,56H45.5z"/>
			<path class="st2" d="M59.3,55V22h32.9v33H59.3z M84.3,26.2H67.1v24.6h17.3V26.2z"/>
			<path class="st2" d="M126.8,56l-1.5-1.6l-1.2,1.6h-7l4.3-6l-4.6-4.9v4.3l1.5-0.1v3.3l-1.5,0.1V56h-7v-2.8l-11.6,0.8v-3.3l1.8-0.2
				V38.2h-1.6v-3.4h34.7v3.4h-16.3v6.6h7l0.8,0.9l1.5-2h-8.3v-3.4h14.9V44l-4.1,5.8l5.7,6.1H126.8z M99.9,33.4V21.2h31.5v12.2H99.9z
				 M109.7,38.2h-3.2v1.8h3.2V38.2z M109.7,43.1h-3.2v1.8h3.2V43.1z M109.7,48.1h-3.2v2l3.2-0.2V48.1z M123.8,24.4h-16.4v1.4h16.4
				V24.4z M123.8,28.6h-16.4V30h16.4V28.6z"/>
			<path class="st2" d="M171.4,45.1V56h-31.1V45.1h-2.8l9.1-9.6h-8.1l6.3-5.1h-6.6v-7H152l-1-2.6h8.2l1,2.6H173v7h-6.1l5.8,5.1H165
				l9.2,9.6H171.4z M165.5,27.1h-19.6v2.3l1.2-1h8.5l-6.5,6h13.6l-6.8-6h9l0.7,0.6V27.1z M163.9,46.9h-16.2v5.3h16.2V46.9z
				 M158,38.2h-4.8l-4.6,4.8h14.1L158,38.2z"/>
			<path class="st2" d="M202.2,56l-2.1-3.7h5.3v-7L196.5,56h-8.5l9.7-11.8h7.6v-2.3h-15.8l-1.8,2.3h7.2L185.2,56h-8.5l7.2-8.7h-7.4
				l9.2-11.1h-6V21h31.9v15.1h-17.2l-1.7,2h20.4V56H202.2z M204,24.8h-16.7v1.9H204V24.8z M204,30.4h-16.7v2H204V30.4z"/>
			<path class="st2" d="M243.1,56l-7.2-3.9l-7.2,3.9h-11.4l12.8-7.1l-9.4-5.2H232l3.8,2.1l5.6-3.1h-20.8v-2.5h-2.2v-8h3.6l-2-5.3
				h7.7l1.9,5.3h3.5l-2-5.3h7.6l2,5.3h1.3l2.8-5.3h8l-2.8,5.3h3.3v8h-1.7v3.3l-9.8,5.5l13,7.1H243.1z M251.3,25.8h-32.6v-3.8h26
				l0.8-1.4h8.2L251.3,25.8z M245.6,36h-19.9v2.8h19.9V36z"/>
			<path class="st2" d="M267.7,26.8l-2.8,6.2H257l5.4-12.3h8l-0.9,2.1h24.1v4H267.7z M292.4,55.8h-9.2v-17h-24.8v-4h32.4v17.1h3.4
				L292.4,55.8z M266.9,32.8V29h23.9v3.8H266.9z"/>
			<path class="st2" d="M305.3,34.6h1V56h-7.1V36.4h-1.7l3.6-15.6h7.4L305.3,34.6z M307.7,52.1V27.5h5.2v24.6H307.7z M326,56l-2.4-4
				l-3,4h-8.1l6.8-8.8h-5.6v-3.7h6.5v-4h-0.8l-0.6,2.6h-5.4l1.8-8.5h5.6l-0.5,2.3h12v3.6h-5.1v4h6.4v3.7h-6.3l-1,1.4h3.1l4.5,7.5
				H326z M313.6,32.6v-3.8h8.8l1.2-4h-9v-3.7h16.2v3.4l-1.3,4.3h3.9v3.8H313.6z"/>
			<path class="st2" d="M362.3,56l-6.6-3.3l-6.6,3.3h-12l12.3-6.5l-10.2-5.2h12.1l4.2,2.1L362,43h-22.4v-3.9h32v5.2l-9.7,5.1
				l12.6,6.5H362.3z M344.1,37.3h-6.6l2.7-8.6h6.4L344.1,37.3z M364.3,27v11H357V27h-2.4v11h-7.4V27h-9.3v-3.8h14.2l-1.1-2.5h8.3
				l1.1,2.5h13.1V27H364.3z M367.3,37.3l-2.5-8.6h6.4l2.6,8.6H367.3z"/>
			<path class="st2" d="M406.5,55.9l-1.6-1.3l-1.2,1.3H397l3.8-4.4l-2.5-2l-1.8,6.4h-6.7l0.3-1h-11.9v-33h11.9v32.6l3.9-13.9h-3.2
				V37h4.3l0.4-1.7H392v-3.8h13.2l0.3-0.8H400l-0.9-3.9h5.7l0.8,3.3l1.2-3.3h5.9l-1.6,4.8h1.4v3.8h-10.3l-0.5,1.7h11.7v3.7h-12.7
				l-0.5,1.7h12.4V46l-4.6,5l6.1,4.8H406.5z M385.3,25.7h-1.6v10.5h1.6V25.7z M385.3,40h-1.6v11.1h1.6V40z M411.9,25.7h-20.6V22
				h13.9l0.5-1.4h8.1L411.9,25.7z M392.8,30.6l-1-3.9h6.1l1.1,3.9H392.8z M399.3,46l-0.3,1.1h4l1.1,0.8l1.6-1.9H399.3z"/>
			<path class="st2" d="M446.3,31.4h-7.4V33H432l0.3,1.6h7.4v3.7h-21.8v-3.7h7.1l-0.3-1.6h-5.9V21h20.2v9.1l6-9.4h8.5L446.3,31.4z
				 M446.2,43h-7.7v4.4h-6.2v8.4h-7.1l-1-2.6l-0.5,2.6h-5.8l1.2-7.4h5.7l-0.5,3.6h1.4v-4.6h-6.4v-8.1h19.2V42l6.6-9.8h8.2L446.2,43z
				 M431.9,24.5h-6.2v1.1h6.2V24.5z M431.9,28.4h-6.2v1.1h6.2V28.4z M431.9,42.7h-6v1.5h6V42.7z M445.7,55.8h-8.4l0.6-0.9h-3.8
				l-1-6.4h5.6l0.6,4.3l6-9h8.4L445.7,55.8z"/>
			<path class="st2" d="M458.4,55V22h11.2v33H458.4z M464.8,25.9h-1.3v25.3h1.3V25.9z M483.6,56l-2.2-3.8h5.2V28.9h-8.9V56h-6.6v-31
				h5.7l1.2-4.2h7.6l-1.2,4.2h8.6v31H483.6z M478.7,50V31.2h6.9V50H478.7z M482.7,35h-1.2v11.2h1.2V35z"/>
			<path class="st2" d="M520.8,56l-1.6-4h6.8V29h-3.3l-1.2,4.2h-6.8V56h-16.2v-31h3.3l1.3-4.4h7.4l-1.3,4.4h5.5v6.5l3.4-11h7.2
				l-1.3,4.5h9.3V56H520.8z M508.1,29h-3.3v9.3h3.3V29z M508.1,42.2h-3.3V52h3.3V42.2z M518.4,48.3l-3.2-13.9h7l3.2,13.9H518.4z"/>
			<path class="st2" d="M538.1,55.9v-4l2.1-0.8v-19h-1.9v-3.7h1.9v-7.6h6.7v7.6h1.6v3.7h-1.6v16.4l1.7-0.8v4L538.1,55.9z
				 M569.7,41.2l1.4,10.9h3l-1.4,3.7h-7.7l-0.5-3.5l-1.4,2.7h-4.4l1.8-3.7h-2.8l-1.2-3.5v3.1l-1.5,4.9h-7.1l1.8-5.8V25h11.5
				l-0.5-4.3h6.6l0.5,4.3h1l-0.4-3.6h3.5l0.4,3.6h0.9v3.7h-5.1l0.7,4.9l0.7-1.7h4.5L569.7,41.2z M561.5,28.8h-5.2v5h5.3v14.9
				l1.8-3.9L561.5,28.8z M557.6,37.6h-1.3v9.9h1.3V37.6z"/>
			<path class="st2" d="M599.6,28.4v4.1h12.6v20.6h-9.3l-2.3-3.9h4.4V36.5h-5.4v19.4h-7.8V36.5h-5.3v16.6h-7.3V32.6h12.6v-4.1h-14
				v-3.9h13.8l-1.1-3.8h8.2l1.1,3.8h13.8v3.9H599.6z"/>
		</g>
		<text transform="matrix(1 0 0 1 48 103.4576)" class="st11 st12 st13">2005</text>
		<text transform="matrix(1 0 0 1 165 103.4576)" class="st11 st12 st13">2070</text>
		<g>
			<path class="st14" d="M874,699.5H717.4c-8.8,0-16-7.2-16-16V467.8"/>
			<g>
				<text transform="matrix(1 0 0 1 834.6693 692.822)" class="st11 st18 st17"></text>
			</g>
		</g>
		<g>
			<path class="st14" d="M873,665H763.4c-8.8,0-16-7.2-16-16V455.8"/>
			<g>
				<text transform="matrix(1 0 0 1 793.6693 658.412)" class="st11 st18 st17"></text>
			</g>
		</g>
		<g>
			<path class="st14" d="M1050.3,166.5H770.7c-8.8,0-16,7.2-16,16v265.2"/>
			<g>
				<text transform="matrix(1 0 0 1 1011.0027 159.0787)" class="st11 st18 st17"></text>
			</g>
		</g>
		<g>
			<path id="SVGID_x5F_2_x5F_" class="st15" d="M1051,538.5H817.4c-8.8,0-16-7.2-16-16v-30.6"/>
			<text class="st11 st16 st17">			<textPath  xlink:href="#SVGID_x5F_2_x5F_" startOffset="87.565%">
 			</textPath>
</text>
			<g>
				<g>
					<text transform="matrix(1 0 0 1 971.6693 528.822)" class="st11 st18 st17"></text>
				</g>
				<path class="st14" d="M1051.3,535.8H816.7c-8.8,0-16-7.2-16-16v-29.3"/>
			</g>
		</g>
		<g>
			<path class="st14" d="M892.6,487h-65.2c-8.8,0-16-7.2-16-16v-17.8"/>
			<g>
				<text transform="matrix(1 0 0 1 853.2584 480.412)" class="st11 st18 st17"></text>
			</g>
		</g>
		<g>
			<path class="st14" d="M1048.5,377H898.9c-8.8,0-16,7.2-16,16v22"/>
			<g>
				<text transform="matrix(1 0 0 1 1011.2584 368.9119)" class="st11 st18 st17"></text>
			</g>
		</g>
		<g>
			<path class="st14" d="M1049.5,341.5H893.9c-8.8,0-16,7.2-16,16V418"/>
			<g>
				<text transform="matrix(1 0 0 1 1012.2584 333.412)" class="st11 st18 st17"></text>
			</g>
		</g>
		<g>
			<line class="st14" x1="966" y1="428.6" x2="835.3" y2="428.6"/>
			<g>
				<text transform="matrix(1 0 0 1 926.6693 421.9161)" class="st11 st18 st17"></text>
			</g>
		</g>
		<g>
			<line class="st14" x1="402" y1="443.6" x2="272.7" y2="443.6"/>
			<g>
				<text transform="matrix(1 0 0 1 342.6693 436.9161)" class="st11 st18 st17"></text>
			</g>
		</g>
		<g>
			<path class="st14" d="M1051,615.7H782.1c-8.8,0-16-7.2-16-16V470.5"/>
			<g>
				<text transform="matrix(1 0 0 1 1011.6693 609.0787)" class="st11 st18 st17"></text>
			</g>
		</g>
		<g>
			<path class="st14" d="M1050.3,203.5h-256c-8.8,0-16,7.2-16,16v267"/>
			<g>
				<text transform="matrix(1 0 0 1 1011.0027 196.002)" class="st11 st18 st17"></text>
			</g>
		</g>
		<g>
			<path class="st14" d="M1050.3,239.5H813c-8.8,0-16,7.2-16,16v205"/>
			<g>
				<text transform="matrix(1 0 0 1 991.0027 232.002)" class="st11 st18 st17"></text>
			</g>
		</g>
		<g>
			<path class="st14" d="M734.7,168H595.1c-8.8,0-16,7.2-16,16v245.8"/>
			<g>
				<text transform="matrix(1 0 0 1 637.4929 159.9552)" class="st11 st18 st17"></text>
			</g>
		</g>
		<g>
			<line class="st14" x1="422.6" y1="396.5" x2="293.4" y2="396.5"/>
			<g>
				<text transform="matrix(1 0 0 1 383.3037 389.822)" class="st11 st18 st17"></text>
			</g>
		</g>
		<g>
			<line class="st14" x1="245.5" y1="434.6" x2="24" y2="434.6"/>
			<g>
				<text transform="matrix(1 0 0 1 25.6693 427.9161)" class="st11 st18 st17"></text>
			</g>
		</g>
		<rect x="20" y="549.1" class="st15" width="227.5" height="216"/>
		<text transform="matrix(1 0 0 1 20 560.522)"><tspan x="0" y="0" class="st19 st18 st20">*</tspan><tspan x="0" y="19.2" class="st19 st18 st20"></tspan><tspan x="0" y="38.4" class="st19 st18 st20"></tspan><tspan x="0" y="57.6" class="st19 st18 st20">Nicholls, R. J. et al. , </tspan><tspan x="0" y="76.8" class="st19 st18 st20">Ranking Port Cities with High </tspan><tspan x="0" y="96" class="st19 st18 st20">Exposure and Vulnerability to </tspan><tspan x="0" y="115.2" class="st19 st18 st20">Climate Extremes, OECD </tspan><tspan x="0" y="134.4" class="st19 st18 st20">Environment Working Papers </tspan></text>
	</g>
</g>
</svg>
