<?xml version="1.0" encoding="utf-8"?>
<!-- Generator: Adobe Illustrator 19.1.0, SVG Export Plug-In . SVG Version: 6.00 Build 0)  -->
<svg version="1.1" id="Layer_1" xmlns="http://www.w3.org/2000/svg" xmlns:xlink="http://www.w3.org/1999/xlink" x="0px" y="0px"
	 viewBox="-351 23 16 16" style="enable-background:new -351 23 16 16;" xml:space="preserve">
<path d="M-343,23c-1.5,0-2.9,0.4-4.1,1.1c-0.3-0.3-0.8-0.5-1.3-0.5c-1.1,0-2,0.9-2,2c0,0.5,0.2,1,0.5,1.3c-0.7,1.2-1.1,2.6-1.1,4.1
	c0,4.4,3.6,8,8,8s8-3.6,8-8S-338.6,23-343,23z M-343,38.2c-4,0-7.2-3.2-7.2-7.2c0-1.3,0.4-2.5,1-3.6c0.2,0.1,0.5,0.2,0.8,0.2
	c1.1,0,2-0.9,2-2c0-0.3-0.1-0.6-0.2-0.9c1.1-0.6,2.3-1,3.6-1c4,0,7.2,3.2,7.2,7.2S-339,38.2-343,38.2z"/>
</svg>
